<svg xmlns="http://www.w3.org/2000/svg" viewBox="0 0 851 532" fill="currentColor">
  <path d="M163.765 214.606C157.049 214.606 151.363 211.734 146.707 206.001C142.047 200.271 137.552 190.798 133.223 177.592C131.055 171.101 129.267 164.771 127.86 158.602C126.448 152.431 125.422 146.426 124.775 140.582C121.956 144.914 119.412 147.78 117.138 149.184C114.864 150.595 111.559 151.296 107.227 151.296C96.6101 151.296 85.3448 151.135 73.4352 150.81C61.5173 150.485 50.9028 150.215 41.5896 149.998C41.1534 153.893 40.778 157.846 40.4527 161.849C40.1274 165.854 39.9664 169.8 39.9664 173.698C39.9664 177.161 40.1274 180.628 40.4527 184.087C40.778 187.55 41.0478 190.905 41.267 194.152C41.9149 200.216 39.5302 205.084 34.1167 208.762C28.7013 212.44 21.9825 214.283 13.9725 214.283C7.03665 214.283 3.57243 211.248 3.57243 205.19C3.57243 201.512 4.54839 195.993 6.49693 188.632C7.5784 183.656 8.44886 179.379 9.09613 175.809C9.74676 172.238 10.0721 169.371 10.0721 167.203C10.0721 161.148 8.22904 157.034 4.54839 154.867C1.5123 153.137 0 150.865 0 148.049C0 145.45 0.592476 142.317 1.78757 138.634C2.97455 134.956 4.54839 131.548 6.49693 128.406C8.44886 125.269 10.2865 123.05 12.0213 121.751C13.5363 120.889 15.3766 120.128 17.545 119.479C19.7079 118.829 22.4214 118.398 25.6685 118.178C34.1167 93.9421 43.5916 73.0002 54.0999 55.3557C64.6062 37.7163 75.8152 24.0802 87.7302 14.4474C99.6427 4.81985 111.778 0 124.124 0C131.705 0 137.226 2.54662 140.696 7.63116C144.158 12.7174 145.894 21.2136 145.894 33.1162V47.7262C145.894 69.592 147.518 89.7191 150.768 108.114C154.018 126.515 158.025 141.449 162.792 152.919C167.554 165.043 174.162 174.995 182.611 182.788C185.21 184.954 186.943 186.846 187.81 188.471C188.674 190.093 189.111 191.773 189.111 193.502C189.111 196.749 187.862 199.996 185.374 203.243C182.881 206.491 179.687 209.198 175.789 211.359C171.888 213.521 167.88 214.606 163.765 214.606ZM51.3391 116.232C56.7621 116.012 61.8466 115.805 66.5924 115.611C71.1332 115.426 75.3639 115.254 79.2841 115.095C87.2941 114.77 94.0108 114.609 99.429 114.609H122.175C121.739 108.55 121.361 102.165 121.038 95.4524C120.713 88.7451 120.549 81.7091 120.549 74.3495V55.5165C120.549 49.2417 119.843 45.0776 118.439 43.0206C117.027 40.9636 114.378 39.9342 110.477 39.9342C99.8598 39.9342 89.2452 46.8647 78.6341 60.7135C68.017 74.5676 58.9181 93.0719 51.3391 116.232Z" />
  <path d="M221.93 214.606C214.132 214.606 210.662 212.009 211.531 206.816C213.912 197.51 215.917 188.04 217.543 178.407C219.167 168.776 219.977 159.522 219.977 150.645C219.977 139.175 219.274 130.79 217.868 125.484C216.455 120.183 214.563 116.507 212.18 114.445C209.794 112.393 206.87 110.822 203.409 109.737C201.889 109.09 200.535 108.225 199.347 107.14C198.152 106.059 197.558 104.542 197.558 102.596C197.558 99.5681 198.746 96.2136 201.132 92.5304C203.515 88.8541 206.925 85.6622 211.368 82.953C215.804 80.2472 220.843 78.8943 226.477 78.8943C233.839 78.8943 238.933 81.4427 241.748 86.5255C244.562 91.6118 245.975 98.2672 245.975 106.492C245.975 111.903 245.429 117.967 244.347 124.673C243.263 131.385 242.183 137.445 241.101 142.853L241.748 143.179C245.213 131.709 249.491 121.1 254.583 111.362C259.672 101.62 265.846 93.7224 273.104 87.6621C280.361 81.6036 288.753 78.5708 298.29 78.5708C308.036 78.5708 315.724 81.8717 321.358 88.4735C326.988 95.0787 329.807 104.762 329.807 117.531V124.673C336.087 111.472 343.724 100.433 352.714 91.5564C361.7 82.6831 372.586 78.2456 385.369 78.2456C395.77 78.2456 403.892 81.7091 409.739 88.6344C415.588 95.5649 418.512 104.218 418.512 114.609C418.512 118.723 418.076 122.673 417.215 126.46C416.344 130.248 415.371 133.982 414.289 137.66C413.42 141.123 412.552 144.696 411.69 148.374C410.821 152.055 410.39 155.735 410.39 159.411C410.39 172.399 415.913 180.84 426.961 184.737C428.475 185.384 429.666 186.09 430.537 186.846C431.399 187.607 431.835 188.957 431.835 190.905C431.835 192.855 431.238 195.668 430.047 199.346C428.856 203.029 426.525 206.437 423.06 209.574C419.594 212.71 414.615 214.283 408.115 214.283C399.667 214.283 393.167 211.196 388.619 205.029C384.07 198.859 381.797 191.017 381.797 181.49C381.797 176.731 382.228 171.75 383.095 166.555C383.959 161.359 385.043 156.384 386.345 151.621C387.426 147.293 388.343 143.179 389.105 139.284C389.864 135.387 390.245 132.034 390.245 129.217C390.245 124.024 388.994 120.239 386.506 117.855C384.015 115.476 380.71 114.284 376.597 114.284C369.661 114.284 363.437 116.451 357.913 120.777C352.388 125.109 347.516 130.735 343.29 137.66C339.067 144.589 335.436 152.163 332.406 160.387C332.621 162.333 332.782 164.882 332.893 168.015C333.002 171.157 333.057 173.914 333.057 176.295C333.057 180.409 332.782 184.737 332.242 189.282C331.7 193.827 330.669 197.617 329.156 200.645C327.419 204.759 324.878 208.112 321.519 210.71C318.158 213.307 313.665 214.606 308.036 214.606C305.65 214.606 303.373 214.118 301.211 213.146C299.045 212.17 297.964 210.605 297.964 208.437C297.964 207.575 298.612 203.729 299.912 196.911C301.211 190.093 302.513 181.706 303.81 171.75C305.112 161.795 305.763 152.055 305.763 142.528C305.763 132.139 304.675 124.948 302.513 120.939C300.343 116.936 297.093 114.934 292.765 114.934C287.347 114.934 282.203 117.206 277.331 121.751C272.457 126.295 268.014 132.139 264.007 139.284C259.997 146.426 256.533 153.893 253.61 161.685C250.686 169.477 248.354 176.731 246.624 183.438V187.009C246.624 195.021 244.401 201.619 239.963 206.816C235.522 212.009 229.509 214.606 221.93 214.606Z" />
  <path d="M468.064 205.84C474.02 212.115 482.412 215.255 493.244 215.255C519.671 215.255 539.709 197.723 553.359 162.659L554.011 162.984C553.359 170.776 553.032 176.62 553.032 180.514C553.032 202.813 560.938 213.957 576.756 213.957C584.986 213.957 591.262 211.466 595.6 206.491C599.932 201.512 602.099 196.424 602.099 191.228C602.099 188.201 601.502 186.199 600.313 185.223C599.116 184.248 597.551 183.656 595.6 183.438C588.449 181.49 583.578 177.757 580.976 172.238C578.38 166.717 577.078 159.737 577.078 151.296C577.078 143.724 577.835 135.442 579.354 126.46C580.865 117.479 582.711 108.981 584.88 100.973C585.959 97.7256 586.773 94.9144 587.313 92.5304C587.851 90.1499 588.127 88.2036 588.127 86.6863C588.127 82.1416 584.551 79.8683 577.402 79.8683C569.168 79.8683 562.943 82.6831 558.722 88.3091C554.497 93.9421 552.598 102.165 553.032 112.984L553.359 119.154C547.722 138.203 540.576 153.031 531.914 163.634C523.246 174.239 513.933 179.542 503.969 179.542C493.355 179.542 488.045 174.134 488.045 163.309C488.045 160.712 488.315 157.681 488.86 154.218C489.399 150.76 490.102 147.293 490.969 143.829C492.271 138.85 493.407 133.601 494.387 128.081C495.36 122.562 495.846 116.557 495.846 110.062C495.846 89.9336 489.674 79.8683 477.325 79.8683C472.988 79.8683 468.656 81.0067 464.326 83.2782C459.988 85.5497 456.366 88.4216 453.442 91.8816C450.517 95.3451 449.058 98.8121 449.058 102.27C449.058 105.737 451.866 108.981 457.504 112.012C463.353 114.825 466.277 120.994 466.277 130.517C466.277 134.2 465.955 137.88 465.304 141.556C464.653 145.239 463.786 148.917 462.702 152.595C460.317 161.472 459.126 170.125 459.126 178.568C459.126 190.474 462.104 199.565 468.064 205.84Z" />
  <path d="M638.818 214.606C631.018 214.606 627.548 212.009 628.421 206.816C630.801 197.51 632.805 188.04 634.429 178.407C636.053 168.776 636.867 159.522 636.867 150.645C636.867 139.175 636.164 130.79 634.756 125.484C633.345 120.183 631.451 116.507 629.066 114.445C626.681 112.393 623.756 110.822 620.299 109.737C618.775 109.09 617.421 108.225 616.237 107.14C615.04 106.059 614.448 104.542 614.448 102.596C614.448 99.5681 615.632 96.2136 618.018 92.5304C620.404 88.8541 623.815 85.6622 628.258 82.953C632.694 80.2473 637.729 78.8943 643.366 78.8943C650.728 78.8943 655.821 81.4427 658.634 86.5255C661.448 91.6118 662.861 98.2672 662.861 106.492C662.861 111.903 662.315 117.967 661.237 124.673C660.153 131.385 659.069 137.445 657.99 142.853L658.963 143.179C663.293 131.709 668.547 121.05 674.723 111.197C680.895 101.354 688.093 93.3971 696.328 87.3369C704.56 81.2783 714.092 78.2456 724.922 78.2456C736.403 78.2456 745.178 81.7091 751.243 88.6344C757.305 95.5649 760.34 104.218 760.34 114.609C760.34 118.939 759.854 123.05 758.881 126.946C757.903 130.842 756.871 134.631 755.792 138.309C754.708 141.774 753.789 145.346 753.032 149.023C752.27 152.706 751.894 156.384 751.894 160.062C751.894 172.399 757.743 180.734 769.437 185.063C772.473 186.36 773.991 188.306 773.991 190.905C773.991 192.855 773.34 195.668 772.04 199.346C770.738 203.029 768.354 206.437 764.889 209.574C761.424 212.71 756.332 214.283 749.621 214.283C740.952 214.283 734.236 211.196 729.471 205.029C724.706 198.859 722.325 191.017 722.325 181.49C722.325 176.082 722.919 170.612 724.114 165.093C725.298 159.576 726.546 154.438 727.847 149.673C728.709 145.995 729.524 142.367 730.284 138.795C731.041 135.226 731.422 132.034 731.422 129.217C731.422 119.264 726.224 114.284 715.827 114.284C706.941 114.284 699.141 117.586 692.43 124.186C685.712 130.79 679.969 139.07 675.209 149.023C670.439 158.982 666.542 169.046 663.512 179.219V187.009C663.512 195.021 661.29 201.619 656.853 206.816C652.41 212.009 646.396 214.606 638.818 214.606Z" />
  <path d="M807.129 208.923C810.81 212.496 815.902 214.283 822.402 214.283C829.553 214.283 835.239 212.765 839.458 209.734C843.685 206.707 846.661 203.354 848.396 199.671C850.126 195.993 850.998 193.291 850.998 191.554C850.998 189.393 850.02 187.77 848.074 186.685C843.304 184.307 839.623 181.765 837.026 179.054C834.423 176.352 833.123 172.293 833.123 166.878C833.123 163.851 833.339 160.603 833.772 157.14C834.207 153.678 834.858 149.889 835.725 145.775C836.804 140.151 837.888 134.037 838.972 127.432C840.056 120.832 840.601 114.069 840.601 107.14C840.601 102.596 840.161 98.1617 839.299 93.8279C838.432 89.5029 836.75 85.9304 834.259 83.1139C831.769 80.3061 827.813 78.8944 822.402 78.8944C817.415 78.8944 812.597 80.1417 807.943 82.6278C803.283 85.119 799.545 88.0981 796.732 91.5564C793.913 95.0234 792.505 98.2672 792.505 101.298C792.505 103.895 793.532 106.004 795.594 107.628C797.651 109.251 800.089 110.822 802.902 112.334C806.583 114.069 808.969 116.718 810.053 120.29C811.137 123.861 811.677 127.595 811.677 131.491C811.677 137.122 811.191 142.423 810.218 147.4C809.245 152.381 807.991 157.251 806.478 162.01C805.183 166.555 804.045 171.212 803.067 175.971C802.094 180.734 801.607 185.604 801.607 190.581C801.607 199.24 803.443 205.354 807.129 208.923Z" />
  <path d="M820.78 61.037C823.159 62.3363 825.215 62.9868 826.95 62.9868C831.933 62.9868 834.423 60.6063 834.423 55.8418C834.423 54.7605 834.207 53.5703 833.772 52.2728C833.339 50.9735 832.906 49.7867 832.477 48.7002C827.923 41.5587 823.212 34.5279 818.34 27.5974C813.464 20.6721 808.429 14.6118 803.231 9.41658C798.243 4.4393 793.262 1.94804 788.286 1.94804C784.816 1.94804 781.194 3.57256 777.397 6.81635C773.61 10.0636 771.711 13.9614 771.711 18.5061C771.711 20.4541 772.256 22.6755 773.335 25.1615C774.424 27.6528 776.048 29.9814 778.211 32.1422C783.843 37.5554 790.396 42.6434 797.869 47.401C805.342 52.1638 812.978 56.712 820.78 61.037Z" />
  <path d="M231.671 473.887C216.289 473.887 202.803 470.421 191.218 463.498C179.626 456.571 170.69 446.725 164.41 433.954C158.125 421.187 154.989 406.032 154.989 388.501C154.989 371.836 157.694 355.819 163.112 340.45C168.522 325.084 176.321 311.342 186.507 299.217C196.688 287.098 208.927 277.463 223.222 270.322C237.52 263.178 253.655 259.608 271.64 259.608C285.067 259.608 296.115 261.666 304.781 265.775C313.443 269.889 317.777 275.953 317.777 283.958C317.777 287.854 316.749 291.7 314.692 295.483C312.631 299.272 309.98 302.464 306.732 305.061C303.482 307.659 300.122 308.957 296.657 308.957C294.489 308.957 292.76 308.42 291.459 307.334C285.609 303.436 279.869 300.573 274.238 298.73C268.601 296.895 262.105 295.969 254.743 295.969C239.359 295.969 226.361 299.492 215.749 306.522C205.133 313.558 197.067 322.811 191.543 334.281C186.02 345.756 183.257 358.2 183.257 371.618C183.257 384.603 185.745 396.076 190.73 406.032C195.711 415.987 202.642 423.782 211.526 429.41C220.406 435.038 230.804 437.849 242.719 437.849C252.249 437.849 261.509 435.956 270.5 432.168C279.488 428.384 287.448 423.132 294.384 416.42C297.414 413.609 300.447 412.197 303.482 412.197C306.081 412.197 307.92 413.287 309.006 415.448C310.088 417.614 310.63 419.782 310.63 421.943C310.63 425.626 309.544 429.79 307.38 434.44C305.212 439.096 301.857 443.692 297.308 448.237C289.29 456.249 279.438 462.525 267.739 467.071C256.041 471.615 244.02 473.887 231.671 473.887Z" />
  <path d="M340.357 461.712C348.261 469.83 358.715 473.887 371.713 473.887C383.84 473.887 394.402 470.527 403.393 463.822C412.381 457.114 419.804 448.454 425.652 437.849C425.652 449.326 427.926 458.14 432.474 464.307C437.026 470.479 443.526 473.565 451.972 473.565C458.253 473.565 463.072 472.101 466.431 469.179C469.788 466.257 472.063 462.96 473.258 459.277C474.442 455.599 475.04 452.571 475.04 450.187C475.04 447.376 474.442 445.537 473.258 444.665C472.063 443.803 470.491 443.155 468.545 442.721C461.178 441.208 456.25 437.257 453.759 430.868C451.267 424.485 450.026 417.182 450.026 408.953C450.026 404.625 450.237 400.299 450.67 395.965C451.104 391.64 451.754 387.2 452.621 382.656C455.002 383.306 456.631 383.632 457.499 383.632C459.445 383.632 461.015 382.931 462.21 381.521C463.394 380.114 464.32 378.547 464.971 376.811C465.621 374.865 466.156 372.322 466.594 369.184C467.028 366.047 467.245 363.501 467.245 361.553C467.245 353.979 462.639 347.972 453.437 343.535C444.224 339.101 433.129 336.877 420.129 336.877C406.046 336.877 393.371 339.476 382.112 344.669C370.844 349.865 361.203 356.795 353.19 365.451C345.175 374.109 339.056 383.792 334.833 394.506C330.607 405.217 328.498 415.987 328.498 426.809C328.498 441.965 332.446 453.596 340.357 461.712ZM405.019 432.005C398.408 437.42 390.771 440.12 382.112 440.12C373.874 440.12 367.377 437.473 362.614 432.168C357.848 426.868 355.467 419.888 355.467 411.225C355.467 399.537 359.74 389.801 368.3 382.007C376.857 374.215 387.741 370.321 400.957 370.321C406.156 370.321 411.134 370.862 415.903 371.942C420.666 373.028 424.891 374.435 428.577 376.165C428.139 382.225 427.276 388.338 425.978 394.506C424.676 400.674 422.834 406.354 420.453 411.548C416.768 419.782 411.624 426.598 405.019 432.005Z" />
  <path d="M514.355 532.003C510.242 532.003 507.099 530.974 504.937 528.919C502.769 526.857 501.79 523.127 502.012 517.715C502.012 514.471 502.282 508.679 502.821 500.346C503.361 492.012 504.123 482.169 505.096 470.802C506.074 459.439 507.153 447.587 508.347 435.254C509.533 422.915 510.669 411.014 511.76 399.537C512.839 388.071 513.817 378.223 514.685 369.995C512.515 370.212 510.458 370.376 508.512 370.481C506.561 370.592 504.609 370.862 502.663 371.293C500.494 371.729 498.866 371.942 497.787 371.942C495.185 371.942 493.45 370.376 492.588 367.234C491.72 364.101 491.288 361.122 491.288 358.306C491.288 355.058 491.774 352.356 492.752 350.19C493.725 348.027 495.834 346.294 499.088 344.995C501.034 344.133 503.577 343.372 506.725 342.723C509.861 342.073 513.166 341.536 516.636 341.1C517.714 328.331 519.396 316.211 521.671 304.737C523.944 293.267 527.461 283.525 532.231 275.517C537.209 267.292 543.977 260.8 552.541 256.037C561.092 251.278 569.812 248.894 578.697 248.894C585.192 248.894 591.311 250.141 597.054 252.627C602.792 255.116 607.451 258.583 611.027 263.016C614.602 267.455 616.389 272.489 616.389 278.114C616.389 282.228 615.359 285.58 613.3 288.177C611.238 290.776 608.911 292.075 606.314 292.075C605.23 292.075 604.04 291.86 602.74 291.424C602.092 291.21 601.445 290.995 600.799 290.78C600.147 290.562 599.495 290.344 598.841 290.125C596.457 289.044 593.479 288.127 589.903 287.366C586.33 286.612 582.484 286.231 578.37 286.231C569.924 286.231 563.26 288.502 558.389 293.047C553.514 297.594 549.827 303.817 547.341 311.718C544.844 319.619 542.841 328.762 541.328 339.151C545.876 338.72 550.752 338.289 555.951 337.853C561.149 337.422 565.376 337.203 568.622 337.203C573.822 337.203 577.884 338.014 580.808 339.639C583.732 341.261 585.192 344.344 585.192 348.892C585.192 351.705 584.705 355.008 583.732 358.792C582.759 362.584 581.294 365.937 579.343 368.859C577.397 371.781 575.122 373.243 572.52 373.243C571.436 373.243 569.595 372.918 566.998 372.267C564.179 371.836 560.5 371.293 555.951 370.646C551.403 369.995 545.66 369.564 538.725 369.345C537.858 378.654 537.155 388.987 536.617 400.351C536.071 411.711 535.801 423.676 535.801 436.226C535.801 449.86 536.236 461.659 537.103 471.615C537.964 481.566 538.836 489.682 539.704 495.966C540.133 498.777 540.46 501.266 540.677 503.432C540.89 505.593 541.006 507.326 541.006 508.626C541.006 514.904 539.482 519.718 536.452 523.073C533.417 526.43 529.841 528.754 525.731 530.054C521.612 531.355 517.82 532.003 514.355 532.003Z" />
  <path d="M645.312 314.475C645.312 319.24 647.799 321.62 652.785 321.62C654.737 321.62 656.788 320.97 658.958 319.671C666.758 315.344 674.395 310.797 681.868 306.033C689.341 301.277 695.782 296.189 701.203 290.776C703.582 288.613 705.312 286.286 706.401 283.795C707.481 281.309 708.025 279.086 708.025 277.14C708.025 272.595 706.127 268.697 702.341 265.45C698.542 262.206 694.915 260.58 691.45 260.58C686.469 260.58 681.487 263.073 676.504 268.05C671.307 273.244 666.271 279.306 661.396 286.231C656.525 293.161 651.812 300.192 647.259 307.334C645.964 309.5 645.312 311.879 645.312 314.475Z" />
  <path d="M602.908 459.763C612.11 469.179 624.946 473.887 641.415 473.887C661.342 473.887 678.563 466.965 693.079 453.109C701.309 445.316 705.423 439.042 705.423 434.276C705.423 432.116 704.72 430.328 703.314 428.924C701.901 427.517 700.114 426.809 697.95 426.809C695.354 426.809 692.536 428.109 689.504 430.704C684.734 434.603 679.049 437.684 672.444 439.957C665.833 442.234 659.391 443.371 653.107 443.371C642.71 443.371 634.207 440.337 627.602 434.276C620.991 428.221 617.58 420.209 617.367 410.253C625.597 416.099 636.216 419.021 649.21 419.021C659.825 419.021 669.466 416.907 678.128 412.689C686.791 408.468 693.725 402.786 698.923 395.643C704.122 388.501 706.725 380.709 706.725 372.267C706.725 361.664 702.827 353.167 695.025 346.782C687.231 340.4 676.833 337.203 663.834 337.203C650.183 337.203 637.677 340.936 626.305 348.403C614.929 355.873 605.881 365.887 599.17 378.436C592.454 390.993 589.1 404.954 589.1 420.315C589.1 437.198 593.697 450.352 602.908 459.763ZM665.785 392.721C660.587 395.965 654.087 397.593 646.286 397.593C641.521 397.593 636.751 397.053 631.991 395.965C627.221 394.887 623.323 393.37 620.292 391.423C622.889 383.848 627.167 377.948 633.128 373.729C639.083 369.509 646.069 367.398 654.087 367.398C660.147 367.398 664.912 368.534 668.382 370.806C671.845 373.078 673.58 376.276 673.58 380.384C673.58 385.365 670.984 389.475 665.785 392.721Z" />
</svg>