<svg viewBox="0 0 584 791" fill="currentColor" xmlns="http://www.w3.org/2000/svg">
<path d="M526.023 477.17L526.776 477.649L526.878 476.879L526.023 477.17ZM417.016 479.188C416.622 479.051 416.211 478.778 415.869 478.846C414.449 479.103 414.397 479.633 415.715 480.163C416.04 480.3 416.537 480.129 416.896 479.958C417.033 479.907 416.982 479.462 417.016 479.188ZM70.8288 305.363C70.1615 305.089 69.4941 304.73 68.7925 304.542C68.5871 304.49 68.2449 304.969 67.9711 305.209C68.3818 305.619 68.8096 306.372 69.2203 306.355C69.7679 306.338 70.2984 305.722 70.8288 305.363ZM422.56 179.985C421.944 180.412 421.106 180.72 420.781 181.319C420.541 181.764 420.986 182.568 421.106 183.218C421.739 182.841 422.68 182.602 422.937 182.055C423.176 181.541 422.714 180.686 422.56 179.985ZM259.58 218.287C260.35 219.091 260.966 220.067 261.839 220.563C262.301 220.819 263.482 220.511 263.893 220.067C264.783 219.074 263.311 216.987 261.6 216.953C261.052 216.936 260.487 217.654 259.58 218.287ZM162.415 546.436C161.662 549.105 161.252 550.132 161.149 551.192C161.132 551.5 161.97 551.894 162.415 552.253C162.638 551.945 163.065 551.62 163.048 551.329C162.997 550.251 162.792 549.191 162.415 546.436ZM265.809 748.694C267.315 746.453 268.068 745.512 268.581 744.451C268.889 743.836 269.078 742.758 268.77 742.399C268.342 741.92 267.264 741.663 266.648 741.868C266.083 742.056 265.467 742.946 265.399 743.579C265.279 744.742 265.553 745.94 265.809 748.694ZM557.424 261.072C556.654 260.782 555.901 260.303 555.114 260.268C553.608 260.2 551.469 259.618 551.709 262.219C551.794 263.142 553.454 264.802 553.728 264.682C555.063 264.066 556.192 262.988 557.356 262.013C557.51 261.859 557.407 261.38 557.424 261.072ZM538.07 478.88C536.992 476.006 536.804 475.185 536.393 474.484C535.777 473.44 535.007 472.499 533.706 470.652C532.697 472.927 531.944 474.604 531.208 476.297C532.919 476.93 534.613 477.58 538.07 478.88ZM508.773 452.193C505.796 448.293 503.879 445.504 501.637 443.041C500.97 442.305 499.173 441.946 498.249 442.305C497.376 442.665 496.983 444.187 496.281 445.385C499.344 448.43 501.843 451.817 508.773 452.193ZM248.868 628.978C242.724 638.199 247.567 644.169 248.868 650.328V628.978ZM164.862 542.279C166.984 539.097 169.312 536.018 171.16 532.682C172.375 530.475 173.145 527.944 173.658 525.463C173.829 524.71 172.683 523.462 171.827 522.811C171.468 522.538 169.928 522.983 169.671 523.479C166.796 529.227 165.016 535.317 164.862 542.279ZM137.123 421.418C137.072 420.596 137.14 419.724 136.9 418.954C136.746 418.39 136.165 417.945 135.788 417.449C135.72 418.133 135.395 418.954 135.651 419.484C135.993 420.169 136.781 420.631 137.397 421.195C136.815 422.632 135.104 424.069 138.047 425.951C140.614 423.368 143.489 420.819 145.97 417.911C147.322 416.32 146.74 414.712 144.293 414.301C141.914 416.662 139.519 419.04 137.123 421.418ZM431.647 655.204C431.887 655.631 432.246 656.196 431.356 655.494C431.151 648.942 429.611 646.034 426.479 647.266C426 648.48 425.418 649.986 424.648 651.97C427.198 653.151 429.422 654.177 431.647 655.204ZM301.095 631.716C304.244 630.843 302.961 628.824 302.379 626.84C302.054 628.653 301.746 630.347 301.438 632.023C298.682 633.067 299.093 635.445 299.059 637.635C298.357 637.925 297.313 637.994 296.988 638.524C294.285 642.886 293.052 647.659 293.6 652.809C293.035 653.322 292.282 653.732 291.991 654.365C291.837 654.673 292.488 655.375 292.779 655.905C292.916 655.546 293.121 655.186 293.155 654.81C293.241 654.04 293.224 653.27 293.241 652.501C293.942 652.176 295.106 651.987 295.243 651.491C296.68 646.838 299.162 642.407 298.682 637.292C299.487 635.445 300.291 633.58 301.095 631.716ZM533.005 262.578L532.474 263.04L532.765 262.372L533.484 262.013L533.005 262.578ZM353.528 213.121C353.323 213.292 353.117 213.48 352.912 213.668C352.998 213.361 353.1 213.07 353.186 212.762L355.376 212.146C355.034 211.735 354.692 211.325 354.332 210.914C354.076 211.65 353.802 212.385 353.528 213.121ZM363.95 202.72C363.727 202.977 363.505 203.25 363.282 203.524C363.385 203.131 363.488 202.737 363.59 202.361C365.49 202.583 366.551 201.882 366.328 199.829C370.538 198.82 373.293 196.356 374.115 191.994C381.952 187.46 381.952 187.46 382.517 181.747C378.204 184.33 373.824 186.314 374.388 192.285C367.372 192.832 367.252 192.969 366.568 200.068C364.583 199.863 363.915 200.941 363.95 202.72ZM413.251 189.667L412.703 190.026L412.909 189.308C413.251 189.24 413.593 189.188 413.918 189.051C414.107 188.983 414.261 188.778 414.415 188.641C414.038 188.983 413.645 189.325 413.251 189.667ZM457.555 386.827C462.398 390.779 467.464 394.782 472.392 398.939C485.603 410.144 499.19 420.921 511.785 432.794C524.756 444.991 538.977 455.495 552.906 466.461C556.586 469.352 560.128 472.807 562.575 476.725C564.064 479.137 563.328 482.918 563.602 486.185C559.512 489.316 555.165 490.821 549.501 490.513C544.111 490.222 538.618 492.429 533.124 493.285C528.076 494.072 522.84 495.491 517.946 494.824C513.787 494.26 510.245 494.858 506.6 496.056C499.994 498.211 493.064 496.227 486.458 497.784C477.115 499.991 467.703 496.86 458.343 498.263C455.399 498.708 452.302 498.297 449.358 498.759C440.46 500.145 431.596 501.77 422.594 503.326C420.644 504.849 421.003 507.039 421.345 509.16C424.665 530.065 427.643 551.021 431.442 571.841C436.781 601.111 442.736 630.261 448.4 659.48C449.53 665.348 451.001 671.233 449.187 677.785C446.347 678.178 443.848 678.384 441.418 678.914C435.241 680.214 430.364 678.093 426.411 673.474C420.541 666.614 412.652 662.046 406.492 655.409C400.365 648.823 392.699 643.673 386.521 637.121C380.241 630.484 372.198 625.814 366.26 619.176C356.146 607.902 343.825 598.972 334.105 587.374C333.301 586.416 332.155 585.766 330.478 584.414C329.502 585.868 328.304 587.015 327.911 588.383C319.406 619.21 311.072 650.089 302.499 680.916C296.013 704.233 289.459 727.55 282.443 750.73C280.201 758.154 277.771 765.51 275.906 773.055C274.348 779.367 272.09 785.406 267.298 791C263.499 789.529 259.615 788.04 255.85 786.586C256.192 776.767 255.234 767.409 252.718 758.343C251.332 753.347 249.33 748.626 249.433 743.237C249.484 740.277 248.662 737.215 247.807 734.324C245.702 727.259 244.795 720.074 244.282 712.701C243.785 705.43 241.715 698.262 240.448 691.026C238.241 678.298 236.975 665.365 232.611 653.134C230.557 647.386 232.628 641.449 230.626 635.548C228.726 629.971 229.069 623.658 228.042 617.739C227.631 615.327 226.211 613.103 224.962 610.143C222.292 611.957 219.931 613.052 218.219 614.814C213.154 619.98 208.345 625.403 203.434 630.723C203.143 631.048 202.972 631.493 202.647 631.75C192.91 639.568 185.671 649.849 176.122 657.924C165.958 666.529 156.665 676.16 147.065 685.432C137.499 694.67 127.951 703.959 118.539 713.351C115.493 716.379 113.217 720.194 110.051 723.05C103.035 729.38 95.6934 735.316 89.3275 740.688C84.5189 740.927 83.4921 734.564 79.2996 738.327C78.8204 736.719 78.1873 735.778 78.4097 735.145C81.3188 727.019 84.536 719.013 87.274 710.836C89.4131 704.387 92.7329 698.416 93.5372 691.351C94.1532 685.979 96.4806 680.385 99.4068 675.783C103.274 669.728 104.387 663.004 106.594 656.521C108.938 649.661 109.931 642.168 114.979 636.42C115.784 628.191 120.78 621.383 122.714 613.599C124.186 607.68 126.41 602.189 128.686 596.577C132.212 587.887 134.83 578.837 137.876 569.942C140.802 561.371 143.797 552.852 148.28 544.897C150.094 541.681 150.625 537.746 151.908 533.589C149.393 532.717 147.254 531.194 145.44 531.519C137.397 532.973 129.063 530.818 121.225 533.367C118.59 534.222 116.263 534.017 113.679 533.846C101.649 533.059 89.7896 535.385 77.8279 535.984C71.308 539.371 64.2919 536.275 57.5495 537.575C45.7932 539.816 33.8315 541.065 21.8527 540.791C16.5136 540.671 13.7072 545.427 8.60762 546.436C5.76693 544.195 2.87491 541.886 0 539.611C3.06315 533.007 7.20439 528.063 13.4676 524.18C18.3618 521.152 21.6816 515.678 25.8571 511.435C29.7758 507.449 33.5748 503.224 38.0241 499.922C42.2509 496.792 46.1697 493.61 49.1301 489.23C50.0713 487.845 51.3205 486.613 52.5869 485.501C63.3164 476.16 74.2 466.991 84.8269 457.514C94.3757 449.011 103.514 440.03 113.114 431.579C119.223 426.208 125.863 421.435 131.972 416.61C132.605 413.634 131.305 411.992 129.508 410.64C122.765 405.542 116.776 399.589 110.53 393.961C107.022 390.796 103.531 387.836 100.553 384.056C96.9084 379.42 92.0826 375.707 87.6847 371.687C83.3381 367.701 78.906 363.818 74.508 359.917C69.6994 355.658 64.8566 351.449 60.048 347.19C55.5302 343.187 51.2008 338.927 46.4948 335.163C40.4541 330.356 35.577 324.317 29.2967 319.716C26.302 317.526 24.3854 313.745 22.349 310.444C20.98 308.22 20.826 305.654 21.7672 302.951C22.9822 299.427 26.0282 298.229 28.6293 300.744C30.4946 302.54 31.9834 304.747 33.9513 306.406C35.5086 307.706 37.5278 308.459 39.3246 309.451C42.9696 303.327 36.4669 302.42 34.7898 298.896C35.6968 298.144 36.5524 296.809 37.6134 296.621C43.5686 295.612 49.5408 294.602 55.5473 294.106C70.1615 292.892 84.7927 291.814 99.4239 290.959C118.436 289.847 137.465 289.008 156.494 288.033C158.633 287.931 160.772 287.674 162.672 287.52C164.743 284.15 165.889 281.036 165.119 277.324C163.459 269.421 161.936 261.466 160.447 253.528C158.873 245.06 157.538 236.558 155.827 228.124C153.431 216.388 150.693 204.721 148.297 192.986C147.442 188.76 147.288 184.415 146.672 180.139C145.029 168.625 142.975 157.164 141.692 145.599C140.169 131.606 137.106 117.783 137.003 103.584C136.986 99.3587 138.15 96.0228 141.504 92.5329C143.301 93.6107 145.628 94.5687 147.373 96.1425C166.933 113.883 186.407 131.708 205.898 149.517C215.498 158.276 225.167 166.932 234.664 175.81C239.713 180.532 244.419 185.63 249.347 190.505C250.819 191.96 252.496 193.208 253.933 194.406C255.182 193.602 256.295 193.294 256.449 192.729C262.643 168.386 271.936 145.018 279.054 120.965C286.019 97.3914 293.514 73.9717 300.496 50.398C303.919 38.8165 306.469 26.9613 309.874 15.3627C311.192 10.8806 313.57 6.62091 315.915 2.5152C317.455 -0.187744 322.726 -0.854919 325.156 1.21509C327.072 2.84021 328.92 4.82465 330.05 7.04858C331.196 9.28961 331.829 11.9755 332.001 14.5244C333.353 34.3858 337.254 53.9393 338.452 73.852C339.325 88.4444 342.337 102.917 344.578 117.424C346.615 130.648 348.771 143.871 351.132 157.061C352.861 166.812 355 176.512 357.122 187.016C359.021 185.887 360.698 185.339 361.759 184.21C369.785 175.725 377.571 167 385.7 158.618C392.322 151.775 399.304 145.291 406.149 138.688C425.486 120.041 445.149 101.702 463.99 82.5765C470.664 75.8192 478.022 69.8146 484.405 62.7836C486.424 60.5596 488.769 58.5411 491.182 56.7449C495.22 53.7169 499.259 54.9827 502.031 59.499C504.033 62.7323 504.273 65.9313 503.075 69.4211C499.601 79.6512 496.452 90.0353 492.636 100.146C488.957 109.845 485.107 119.408 482.18 129.433C478.33 142.691 472.905 155.487 468.131 168.489C458.445 194.902 448.742 221.298 439.091 247.712C438.098 250.415 437.517 253.254 436.507 256.864C443.403 257.052 449.273 256.813 455.279 255.923C472.375 253.357 489.522 250.945 506.703 249.166C527.768 246.993 548.902 245.539 570.002 243.709C572.569 243.486 575.084 242.699 577.634 242.426C579.91 242.203 582.751 245.077 581.656 247.352C579.961 250.928 583.778 251.612 584 254.229C579.944 262.39 572.586 268.069 566.443 274.673C558.194 283.551 549.262 291.797 540.585 300.265C538.121 302.677 535.503 304.935 532.987 307.313C526.365 313.54 519.109 319.237 513.291 326.148C499.053 343.084 483.515 358.737 467.498 373.945C463.699 377.572 460.088 381.216 457.555 386.827Z" />
</svg>
