<svg width="493" height="849" viewBox="0 0 493 849" fill="none" xmlns="http://www.w3.org/2000/svg">
<path d="M261.41 68.4484C261.549 68.5227 261.69 68.597 261.83 68.6713C261.94 68.3679 262.048 68.0661 262.158 67.7643C262.064 67.7272 261.969 67.6885 261.875 67.6513C261.72 67.9176 261.565 68.1822 261.41 68.4484ZM331.863 673.189C331.961 673.785 332.037 674.235 332.143 674.889C332.741 674.136 333.179 673.616 331.863 673.189ZM468.192 770.287C468.841 770.975 468.536 771.938 468.145 772.788C466.713 775.908 465.242 779.011 463.709 782.083C461.988 785.53 460.186 788.935 458.416 792.357C457.496 794.134 456.946 796.119 455.477 797.588C454.32 801.015 451.894 803.688 450.023 806.687C448.869 808.533 447.442 810.206 446.169 811.98C444.792 813.899 443.508 815.886 442.085 817.768C440.12 820.367 438.12 822.944 436.032 825.447C433.087 828.978 430.056 832.439 427.051 835.92C425.349 837.892 423.105 839.023 420.716 839.893C417.527 841.055 414.37 842.332 411.116 843.278C406.784 844.536 402.378 845.548 397.993 846.616C395.462 847.232 392.934 847.947 390.36 848.261C387.664 848.591 385.001 849.275 382.199 848.882C379.932 848.563 377.596 848.756 375.293 848.659C372.561 848.541 369.834 848.331 367.104 848.204C364.551 848.086 361.994 848.023 359.439 847.939C356.827 847.854 354.214 847.783 351.602 847.687C348.694 847.58 345.787 847.444 342.881 847.339C340.451 847.25 338.003 847.349 335.598 847.065C333.549 846.823 331.522 846.899 329.485 846.856C327.403 846.811 325.322 846.715 323.244 846.608C319.201 846.399 315.158 846.17 311.115 845.944C308.916 845.82 306.71 845.743 304.518 845.542C300.132 845.139 295.753 844.672 291.372 844.22C287.608 843.833 283.845 843.432 280.081 843.031C277.891 842.798 275.653 842.748 273.53 842.236C272.316 841.942 271.178 842.059 270.006 841.982C268.82 841.903 267.637 841.773 266.452 841.662C262.719 841.31 258.987 840.951 255.252 840.608C253.65 840.461 252.048 840.332 250.443 840.221C246.521 839.948 242.596 839.722 238.676 839.414C236.033 839.207 233.399 838.89 230.754 839.343C230.639 839.363 230.512 839.36 230.399 839.332C227.273 838.548 224.081 838.737 220.904 838.681C218.601 838.641 216.302 838.43 214.001 838.433C211.1 838.438 208.184 838.809 205.306 838.607C202.308 838.398 199.356 838.699 196.385 838.768C191.089 838.891 185.793 839.032 180.498 839.181C177.29 839.271 174.081 839.363 170.874 839.495C165.338 839.721 159.801 839.958 154.265 840.227C150.4 840.416 146.539 840.691 142.674 840.868C141.92 840.902 141.101 840.789 140.402 840.516C135.921 838.766 131.464 836.958 127.003 835.158C122.923 833.513 118.828 831.904 114.776 830.19C111.612 828.853 108.509 827.372 105.37 825.973C102.067 824.499 98.7411 823.075 95.4489 821.577C92.3797 820.181 89.3369 818.728 86.2925 817.278C81.2505 814.874 76.2287 812.429 71.1743 810.052C68.1965 808.653 65.5175 806.86 63.1111 804.607C57.2995 799.168 51.4384 793.782 45.5989 788.372C45.2954 788.09 44.9656 787.814 44.7318 787.479C43.1678 785.233 41.0664 783.499 39.1865 781.552C38.3642 780.701 37.9198 779.449 37.4212 778.327C35.6868 774.418 34.0888 770.448 32.2708 766.579C31.1125 764.111 30.027 761.648 29.293 759.015C28.9678 757.853 28.2338 756.809 27.7816 755.673C25.9699 751.114 24.0435 746.592 22.4656 741.95C21.4977 739.102 20.2791 736.354 19.4413 733.438C18.6283 730.613 17.8308 727.765 17.0287 724.935C15.8209 720.672 14.8747 716.337 13.7985 712.038C13.1775 709.562 12.4946 707.101 11.883 704.623C10.6225 699.512 9.39915 694.393 8.1433 689.281C7.28542 685.786 6.38109 682.305 5.53559 678.807C4.88212 676.1 4.31691 673.372 3.66034 670.666C3.03009 668.068 2.35184 665.48 1.65965 662.899C0.67324 659.221 -0.0189556 655.524 0.0383397 651.681C0.114217 646.614 -0.0204963 641.542 0.00273147 636.473C0.0228622 632.308 0.151382 628.144 0.210226 623.979C0.275263 619.467 0.296951 614.956 0.368182 610.446C0.457997 604.736 0.586518 599.028 0.67943 593.32C0.719691 590.819 0.693372 588.317 0.733633 585.816C0.775444 583.324 0.869892 580.832 0.925639 578.34C0.93493 577.927 0.828083 577.511 0.838922 577.099C0.871441 575.923 0.938028 574.747 0.989129 573.57C1.00771 573.157 1.10218 572.725 1.01546 572.332C0.540067 570.15 1.16411 567.977 1.02784 565.785C0.925642 564.142 1.32206 562.469 1.48311 560.808C1.86714 556.851 2.25428 552.895 2.61508 548.934C2.7018 547.998 2.60269 547.038 2.74825 546.114C2.8551 545.436 3.16016 544.765 3.49309 544.153C3.7455 543.688 3.86009 543.345 3.54574 542.855C3.34443 542.539 3.2283 542.095 3.25462 541.72C3.36147 540.125 3.50238 538.529 3.6944 536.941C4.07843 533.754 4.51667 530.575 4.9069 527.389C5.2166 524.864 5.28628 522.291 5.82361 519.817C6.48173 516.798 6.70008 513.729 7.24051 510.703C7.78404 507.651 8.2997 504.594 8.76735 501.531C9.21333 498.611 9.53077 495.67 9.99997 492.755C10.5574 489.292 11.231 485.849 11.8288 482.391C12.4606 478.74 13.0428 475.08 13.6839 471.429C14.2383 468.27 14.8732 465.124 15.4198 461.963C15.776 459.908 16.1383 457.845 16.3148 455.769C16.5301 453.256 17.3709 450.917 17.9888 448.509C18.7708 445.459 19.3391 442.354 20.0235 439.277C20.3936 437.607 20.883 435.96 21.1989 434.281C21.8926 430.582 22.5833 426.879 23.1361 423.158C23.6146 419.931 23.9119 416.678 24.2619 413.434C24.3377 412.728 24.3594 412.002 24.2913 411.296C24.0094 408.391 23.6471 405.493 23.3869 402.586C23.2352 400.879 23.2832 399.153 23.1237 397.446C22.8914 394.976 22.5244 392.518 22.2689 390.05C22.0444 387.866 21.9035 385.673 21.7099 383.484C21.2097 377.798 20.3658 372.171 19.1703 366.577C18.5943 363.878 18.6376 361.046 18.3697 358.277C18.3078 357.636 18.1096 357.008 17.9934 356.37C17.803 355.316 17.5521 354.265 17.4638 353.202C17.2161 350.238 17.0287 347.267 16.8382 344.298C16.6586 341.505 16.462 338.711 16.352 335.914C16.1972 331.99 16.0841 328.063 16.0253 324.137C16.0082 323.011 16.2978 321.886 16.352 320.756C16.5084 317.551 16.496 314.333 16.7732 311.139C17.0597 307.819 17.5769 304.518 18.0461 301.215C18.8312 295.681 19.5605 290.134 20.502 284.625C21.233 280.351 22.272 276.13 23.1361 271.879C23.7385 268.909 24.2231 265.914 24.858 262.95C25.7298 258.884 26.7317 254.846 27.6067 250.782C28.6039 246.144 29.5268 241.49 30.4714 236.84C31.1311 233.593 31.8542 230.356 32.3947 227.088C32.8004 224.635 32.9258 222.139 33.2448 219.67C33.5638 217.205 33.9912 214.753 34.3257 212.289C34.4883 211.092 34.5224 209.877 34.6602 208.674C35.0241 205.481 35.4004 202.288 35.7983 199.1C36.331 194.828 35.8835 190.578 35.501 186.335C35.1975 182.978 34.829 179.622 34.352 176.287C34.0315 174.052 33.4554 171.856 33.0203 169.637C32.7679 168.35 32.3962 167.053 32.3962 165.761C32.3978 164.543 32.7214 163.297 33.0636 162.11C34.5038 157.134 35.9083 152.145 37.5141 147.22C38.6631 143.696 40.0289 140.235 41.4412 136.805C44.0845 130.384 46.8532 124.014 49.5275 117.603C51.2805 113.398 52.9404 109.153 54.6748 104.94C56.1877 101.267 57.7238 97.6054 59.2878 93.9544C60.5034 91.1206 61.6215 88.2279 63.0647 85.5117C64.7077 82.4209 66.6216 79.4711 68.4938 76.5088C70.5193 73.302 72.5881 70.1199 74.725 66.9859C76.5275 64.3424 78.4183 61.7561 80.3353 59.1932C82.7479 55.9678 85.1094 52.6944 87.7171 49.63C89.4298 47.6164 91.4599 45.8459 93.4885 44.1326C96.3021 41.7538 99.2304 39.5081 102.145 37.2531C104.022 35.8013 105.948 34.4115 107.879 33.0341C110.248 31.344 112.608 29.6369 115.042 28.0443C117.868 26.1933 120.733 24.3948 123.647 22.6877C126.662 20.9234 129.729 19.2425 132.824 17.6267C134.97 16.5062 137.242 15.6271 139.391 14.5159C145.587 11.309 152.414 10.1329 159.057 8.40256C163.666 7.20155 168.376 6.39982 173.038 5.39691C175.531 4.85986 178.004 4.22998 180.503 3.72698C183.004 3.22244 185.522 2.78904 188.041 2.38664C191.415 1.84649 194.79 1.27854 198.182 0.885423C201.307 0.523263 204.457 0.339038 207.601 0.157958C208.369 0.114623 209.155 0.388601 210.098 0.54337C210.157 0.487653 210.419 0.0156014 210.682 0.0156014C213.675 0.012506 216.68 -0.0695157 219.654 0.176567C222.708 0.428841 225.788 0.657915 228.729 1.73975C229.699 2.09727 230.853 1.92386 231.878 2.17769C239.486 4.05813 247.108 5.90302 254.532 8.44743C259.814 10.2582 265.077 12.1263 270.345 13.9804C277.416 16.4707 284.2 19.6434 291.013 22.7372C294.804 24.4583 298.544 26.2954 302.294 28.1062C302.875 28.3878 303.435 28.7532 303.929 29.1679C309.249 33.647 314.582 38.1089 319.84 42.6591C321.369 43.9809 323.207 44.7981 324.715 46.1833C327.196 48.46 329.957 50.4301 332.588 52.5458C335.624 54.9865 338.708 57.3731 341.662 59.9098C345.608 63.2992 349.851 66.325 353.7 69.8305C354.365 70.4357 355.055 71.047 356.087 71.2358C356.776 71.3611 357.383 72.0422 357.985 72.5266C360.969 74.9333 363.973 77.3198 366.908 79.7868C369.114 81.644 371.222 83.6189 373.385 85.5303C373.857 85.9466 374.392 86.2948 374.872 86.705C375.219 87.0006 375.635 87.2962 375.818 87.6862C376.067 88.2186 376.29 88.3997 376.936 88.522C377.597 88.6473 378.15 89.3856 378.731 89.8809C379.892 90.8698 381.018 91.9037 382.202 92.8648C382.826 93.3709 383.545 93.7594 384.217 94.2066C387.201 96.1892 389.431 98.9766 391.949 101.458C394.231 103.706 396.559 105.91 398.773 108.224C401.116 110.674 403.383 113.198 405.618 115.747C408.743 119.313 411.719 123.008 415.016 126.428C416.196 127.651 417.069 129.164 418.137 130.5C418.653 131.144 419.353 131.641 419.876 132.28C422.557 135.553 425.188 138.867 427.878 142.134C429.408 143.993 431.069 145.745 432.58 147.619C435.504 151.242 438.367 154.91 441.244 158.569C444.405 162.588 446.728 167.117 449.1 171.61C451.04 175.283 452.933 178.978 454.836 182.671C455.78 184.505 456.668 186.372 457.64 188.193C458.803 190.369 459.074 192.795 459.68 195.127C459.695 195.184 459.695 195.246 459.692 195.305C459.61 196.769 460.908 197.811 460.779 199.392C460.668 200.761 461.152 202.191 461.454 203.576C462.05 206.306 462.513 209.086 463.382 211.731C464.407 214.852 464.395 218.164 465.406 221.247C466.106 223.38 465.905 225.722 467.08 227.737C467.357 228.212 467.236 228.905 467.36 229.486C467.994 232.473 468.686 235.446 469.28 238.439C469.705 240.574 469.675 242.861 470.453 244.844C471.363 247.164 471.097 249.64 471.952 251.923C472.257 252.734 472.24 253.661 472.404 254.527C472.785 256.553 473.186 258.575 473.578 260.599C474.197 263.789 474.83 266.977 475.426 270.172C475.882 272.622 476.322 275.076 476.709 277.539C477.271 281.117 477.79 284.701 478.31 288.286C478.695 290.932 479.033 293.587 479.434 296.232C479.621 297.461 479.981 298.665 480.139 299.897C480.424 302.124 480.995 304.323 480.726 306.612C480.662 307.148 481.077 307.72 481.162 308.293C481.672 311.758 482.135 315.231 482.641 318.698C482.974 320.981 483.364 323.256 483.708 325.539C484.08 328.001 484.427 330.468 484.783 332.934C485.241 336.108 485.718 339.279 486.147 342.457C486.67 346.34 487.166 350.226 487.646 354.115C488.16 358.288 488.656 362.465 489.136 366.642C489.386 368.831 489.569 371.029 489.809 373.218C490.179 376.583 490.58 379.943 490.946 383.308C491.029 384.076 490.983 384.856 491.067 385.623C491.522 389.818 492.01 394.009 492.46 398.203C492.561 399.142 492.53 400.094 492.61 401.035C492.708 402.159 492.937 403.276 492.971 404.401C493.025 406.181 492.996 407.966 492.942 409.746C492.875 411.886 492.768 414.027 492.637 416.164C492.508 418.244 492.341 420.323 492.161 422.4C491.853 425.931 491.542 429.463 491.184 432.99C491.121 433.62 490.754 434.216 490.659 434.848C490.407 436.53 490.247 438.226 490.017 439.912C489.678 442.383 489.351 444.86 488.947 447.322C488.208 451.83 487.432 456.336 486.641 460.836C485.941 464.816 485.154 468.779 484.496 472.765C484.208 474.509 484.145 476.29 483.984 478.056C483.953 478.41 483.97 478.771 483.92 479.124C483.321 483.358 482.677 487.588 482.121 491.829C481.644 495.478 481.343 499.153 480.814 502.793C480.383 505.763 480.215 508.765 479.53 511.711C479.189 513.184 479.414 514.783 479.306 516.32C479.213 517.621 479.341 518.92 478.856 520.226C478.551 521.046 478.895 522.086 478.832 523.02C478.753 524.204 478.548 525.377 478.417 526.558C478.366 527.027 478.285 527.516 478.362 527.972C478.519 528.875 478.297 529.652 478.071 530.534C477.728 531.872 477.94 533.355 477.932 534.776C477.93 535.064 478.07 535.361 478.033 535.64C477.769 537.607 477.427 539.566 477.213 541.539C477.113 542.474 477.258 543.435 477.26 544.384C477.265 549.493 477.097 554.608 477.306 559.708C477.508 564.631 478.102 569.539 478.505 574.456C478.717 577.067 478.886 579.681 479.075 582.295C479.096 582.59 479.065 582.908 479.158 583.182C479.906 585.413 479.83 587.743 480.072 590.039C480.32 592.389 480.897 594.704 481.337 597.033C481.574 598.29 481.845 599.541 482.062 600.8C482.413 602.851 482.796 604.899 483.047 606.962C483.209 608.301 483.109 609.669 483.216 611.017C483.358 612.846 483.572 614.672 483.784 616.496C484.152 619.665 484.646 622.824 484.899 626.002C485.184 629.611 485.263 633.235 485.427 636.852C485.438 637.089 485.411 637.328 485.41 637.566C485.396 641.056 485.399 644.546 485.366 648.035C485.351 649.816 485.249 651.597 485.235 653.379C485.219 655.335 485.28 657.29 485.274 659.246C485.264 661.862 485.191 664.476 485.208 667.091C485.216 668.212 485.264 669.356 485.489 670.448C486.244 674.146 485.867 677.897 486.093 681.619C486.255 684.282 486.17 686.951 486.469 689.623C486.726 691.916 486.602 694.259 486.563 696.579C486.526 698.771 486.478 700.972 486.257 703.151C485.916 706.472 485.975 709.845 484.656 713.048C484.072 714.465 484.129 716.136 483.816 717.678C483.536 719.06 483.133 720.419 482.81 721.794C482.392 723.577 482.031 725.374 481.579 727.149C481.23 728.519 480.716 729.85 480.388 731.225C479.73 733.984 479.179 736.768 478.528 739.529C477.867 742.334 477.286 745.169 476.41 747.907C475.151 751.838 473.859 755.762 472.577 759.687C471.738 762.256 470.835 764.805 469.856 767.323C469.465 768.334 468.794 769.234 468.192 770.287Z" fill="black"/>
</svg>
