<svg width="964" height="903" viewBox="0 0 964 903" fill="none" xmlns="http://www.w3.org/2000/svg">
<path d="M463.468 0.0283932C463.399 0.0969754 461.752 0.302722 459.762 0.508469C455.645 0.919962 454.547 1.46862 455.233 2.56594C455.439 3.04601 455.096 2.90885 454.341 2.29161C453.312 1.46862 451.802 1.26287 447.685 1.40004C444.803 1.5372 442.127 1.74295 441.784 1.9487C441.509 2.15444 438.558 2.36019 435.265 2.42877C432.039 2.49735 429.363 2.77168 429.363 3.04601C429.363 3.32034 427.442 3.73183 425.109 4.00616C422.707 4.28049 419.894 4.6234 418.727 4.82915C416.806 5.10348 415.09 5.30923 406.032 6.13221C403.973 6.33796 400.748 6.81804 398.827 7.22953C396.974 7.57244 393.68 8.1211 391.622 8.25826C389.563 8.46401 386.269 9.08125 384.348 9.62991C382.426 10.1786 378.515 10.933 375.77 11.2759C368.084 12.236 361.222 13.4019 359.713 14.0878C358.958 14.4307 357.311 14.7736 356.144 14.8422C354.909 14.9107 353.88 15.2537 353.88 15.5966C353.88 15.9395 353.537 16.0766 353.056 15.9395C352.576 15.7337 350.517 16.0766 348.39 16.6253C346.332 17.1054 343.381 17.7912 341.871 18.1341C340.361 18.4084 339.058 19.0257 338.92 19.3686C338.783 19.7801 338.234 19.9172 337.685 19.7115C337.136 19.5058 336.725 19.6429 336.725 19.9172C336.725 20.2602 335.283 20.4659 333.499 20.3973C330 20.3287 328.284 20.7402 328.833 21.5632C329.039 21.8375 327.941 22.0433 326.431 21.9747C324.922 21.9747 323.686 22.1119 323.686 22.3862C323.686 22.7291 322.589 22.9349 321.285 22.9349C319.981 22.9349 318.883 23.1406 318.883 23.4149C318.883 23.7579 317.305 24.0322 315.452 24.1693C313.531 24.3065 310.511 24.7866 308.727 25.3352C306.943 25.8839 304.678 26.364 303.649 26.364C302.62 26.364 301.59 26.6383 301.385 27.0498C301.179 27.3927 300.218 27.7356 299.326 27.7356C298.434 27.7356 297.542 28.01 297.336 28.3529C297.061 28.6958 296.375 28.9015 295.689 28.8329C295.071 28.6958 293.287 29.0387 291.846 29.5873C290.337 30.0674 287.592 30.6847 285.67 30.8904C283.749 31.1647 281.416 31.6448 280.455 32.0563C279.494 32.4678 278.534 32.7421 278.259 32.6735C277.916 32.605 277.71 32.8107 277.71 33.2222C277.71 33.5651 277.299 33.7023 276.818 33.4965C276.338 33.3594 274.76 33.6337 273.387 34.2509C272.015 34.7996 269.613 35.2797 268.103 35.2797C266.525 35.2797 265.427 35.554 265.633 35.8283C265.839 36.1712 264.26 36.8571 262.065 37.3371C259.937 37.8172 257.81 38.503 257.398 38.8459C256.918 39.1889 255.82 39.6004 254.997 39.7375C254.105 39.9433 253.075 40.4233 252.663 40.9034C252.32 41.3835 251.154 41.7264 250.125 41.5892C248.889 41.4521 246.144 42.4122 242.576 44.3325C239.42 45.9785 236.675 47.213 236.4 47.0758C236.057 47.0072 235.851 47.213 235.851 47.5559C235.851 47.8988 235.096 48.3789 234.136 48.5846C233.175 48.859 232.42 49.339 232.42 49.7505C232.42 50.162 232.146 50.2992 231.871 50.0934C231.528 49.8877 230.567 50.3678 229.813 51.1222C228.989 51.808 228.166 52.4252 227.96 52.4252C226.656 52.3567 226.244 52.4938 225.421 53.2482C224.94 53.7283 222.95 54.8942 221.098 55.8543C219.245 56.8145 217.392 57.8432 216.98 58.1176C216.637 58.3919 214.373 59.8321 212.04 61.2723C209.638 62.7126 207.922 64.0842 208.197 64.29C208.403 64.5643 207.854 64.77 206.962 64.77C206.001 64.77 204.766 65.4559 204.011 66.4846C203.325 67.4447 202.158 68.1992 201.472 68.1992C200.717 68.1992 200.168 68.6792 200.168 69.2965C200.168 69.8451 199.894 70.1195 199.482 69.9137C199.139 69.708 198.796 69.8451 198.796 70.188C198.796 70.5995 198.453 70.9424 198.11 70.9424C197.286 70.9424 189.12 76.429 187.473 78.075C186.856 78.6922 185.964 79.1723 185.415 79.1723C184.523 79.1723 181.915 82.6014 182.189 83.4244C182.258 83.7673 181.64 83.9731 180.748 83.9731C179.376 83.9731 176.974 85.5505 173.337 88.911C172.582 89.5968 171.553 90.1455 171.004 90.1455C170.455 90.1455 169.975 90.7627 169.975 91.5171C169.975 92.2715 169.563 92.8888 169.014 92.8888C168.465 92.8888 165.72 94.7405 162.907 97.0037C160.093 99.2669 157.417 101.119 156.937 101.119C156.525 101.119 156.319 101.324 156.525 101.667C156.868 102.216 155.015 105.028 154.535 104.685C153.437 104.136 152.065 104.685 152.408 105.576C152.614 106.125 152.545 106.537 152.271 106.468C151.173 106.194 148.222 108.183 146.987 110.103C146.095 111.406 144.997 112.092 143.967 112.092C143.075 112.092 142.458 112.298 142.732 112.503C143.281 113.052 142.526 113.738 137.38 117.51C135.115 119.224 132.645 121.213 131.821 121.968C130.998 122.791 129.626 123.957 128.733 124.574C127.841 125.26 125.989 126.7 124.685 127.866C120.636 131.432 116.382 134.724 115.764 134.724C115.49 134.724 115.078 135.41 114.872 136.233C114.598 137.056 114.254 137.536 113.98 137.33C113.362 136.644 109.52 140.622 109.382 142.131C109.314 142.954 108.902 143.365 108.147 143.16C107.53 142.954 106.569 143.297 106.02 143.914C105.402 144.463 104.785 144.737 104.51 144.531C104.304 144.257 104.098 144.463 104.098 144.874C104.098 145.286 102.52 147.137 100.53 148.92C98.6088 150.704 96.1384 153.035 95.0404 154.064C93.9425 155.161 92.6387 155.984 92.0897 155.984C91.5408 155.984 91.0604 156.396 91.0604 156.876C91.0604 157.768 86.6 162.157 85.5707 162.157C85.2276 162.157 84.7473 162.774 84.5414 163.528C84.3355 164.283 83.6493 164.9 83.1003 164.9C82.5514 164.9 82.1397 165.38 82.1397 165.929C82.1397 166.478 81.7279 166.958 81.179 166.958C80.2183 166.958 79.0517 168.809 79.3262 169.907C79.3948 170.25 79.1203 170.318 78.7772 170.112C78.091 169.632 75.2775 173.13 75.2775 174.433C75.2775 174.845 75.003 175.187 74.6599 175.187C74.3168 175.187 73.6306 176.285 73.1503 177.519C72.6699 178.822 72.0523 179.782 71.7092 179.577C71.4347 179.371 71.1602 179.988 71.1602 180.88C71.1602 181.84 70.6799 182.8 70.0623 183.006C69.5133 183.212 69.2389 183.692 69.4447 184.103C69.6506 184.446 69.582 184.789 69.2389 184.789C68.8271 184.789 68.3468 185.612 68.1409 186.572C67.8664 187.601 67.1802 188.835 66.6312 189.453C66.0137 190.001 65.8764 190.687 66.1509 190.893C67.1802 191.579 67.7292 193.636 66.9744 194.048C66.6312 194.322 66.5626 194.802 66.7685 195.213C67.043 195.694 66.9057 195.762 66.494 195.488C66.0137 195.213 65.6705 194.528 65.6705 193.979C65.6705 193.43 65.4647 193.019 65.2588 193.019C64.504 193.019 62.2395 195.899 62.2395 196.928C62.2395 197.408 61.965 197.82 61.5533 197.82C61.2102 197.82 60.8671 198.231 60.8671 198.78C60.8671 199.328 60.3867 199.946 59.7691 200.151C59.2201 200.357 58.877 200.837 59.0829 201.18C59.2888 201.523 58.7398 202.826 57.9163 204.061C56.3381 206.392 55.2401 208.656 55.1029 209.684C55.0343 209.959 54.6225 210.439 54.1422 210.782C53.6618 211.056 53.3187 211.605 53.3873 211.948C53.5932 213.319 53.2501 214.348 52.7011 214.005C52.358 213.731 51.6718 214.485 51.1915 215.582C50.7111 216.68 50.0249 217.434 49.7504 217.297C49.2701 216.954 48.8583 219.08 49.1328 220.589C49.1328 220.932 48.8583 221.138 48.5152 221.138C48.1035 221.138 47.829 221.755 47.829 222.578C47.829 223.332 47.5545 223.812 47.2114 223.607C46.9369 223.401 45.5645 225.39 44.3293 227.996C43.0255 230.602 41.6531 232.728 41.31 232.728C40.8983 232.797 40.4865 233.482 40.4865 234.305C40.4179 235.197 39.869 236.226 39.32 236.637C38.7024 237.049 38.1534 238.352 38.0848 239.518C38.0162 240.752 37.5358 241.712 37.1241 241.712C36.7124 241.712 35.8203 242.81 35.2027 244.113C34.5851 245.416 33.7617 246.65 33.4186 246.856C33.0068 247.062 32.7323 247.816 32.7323 248.502C32.7323 249.188 32.1148 250.285 31.3599 250.971C30.6051 251.657 30.1934 252.411 30.3306 252.754C30.5365 253.028 30.3992 253.44 30.0561 253.646C29.5071 254.057 28.9582 254.88 25.1154 262.287C24.2233 264.001 23.194 265.579 22.9195 265.785C22.5764 265.99 22.3019 266.47 22.3019 266.813C22.096 268.528 21.5471 269.762 20.9981 269.419C20.655 269.214 20.3805 269.488 20.3805 270.105C20.3805 271.408 18.1846 275.523 17.1553 276.209C16.675 276.483 16.2632 277.375 16.2632 278.061C16.2632 278.815 15.5084 280.53 14.5477 281.901C13.587 283.273 13.038 284.645 13.2439 284.988C13.4498 285.331 13.2439 285.605 12.8322 285.605C12.4204 285.605 12.2146 285.879 12.4204 286.222C12.6949 286.565 12.4891 286.977 12.0773 287.114C11.7342 287.251 11.2539 288.965 11.048 290.954C10.9108 292.943 10.4991 295.755 10.2246 297.127C9.6756 299.459 9.6756 301.653 10.2932 308.58C10.4304 310.089 9.95008 312.763 9.33249 314.478C8.09731 317.701 7.34248 322.159 6.99937 328.949C6.86213 331.075 6.38178 333.475 5.97005 334.298C5.28384 335.533 5.35246 336.424 6.03867 338.55C6.65626 340.471 6.72488 341.362 6.17591 341.705C5.69556 341.98 5.21522 345.477 4.94073 349.729C4.73487 353.913 4.25452 358.165 3.91141 359.331C3.15658 361.868 3.2252 365.16 3.98003 365.16C4.32314 365.16 4.25452 365.915 3.91141 366.875C3.01934 369.207 2.60761 371.538 2.12726 376.133C1.9214 378.191 1.50967 381.551 1.23518 383.54C0.343106 389.164 0.274485 398.08 1.09794 398.08C1.50967 398.08 1.64691 398.56 1.44105 399.109C0.823455 400.686 6.51902 400.48 8.98939 398.834C10.1559 398.08 11.2539 397.6 11.597 397.805C11.8715 398.011 12.5577 397.325 12.9694 396.228C14.3418 393.279 15.8515 392.045 17.4298 392.662C18.665 393.142 18.7336 393.485 18.1846 398.148C17.567 403.086 16.9495 405.212 16.9495 402.332C16.9495 401.097 16.5377 400.823 14.685 400.823C12.8322 400.823 11.597 401.578 8.50904 404.458C6.4504 406.447 4.1859 408.024 3.63693 407.956C3.01934 407.887 2.53899 408.23 2.53899 408.71C2.53899 410.356 3.36244 411.796 4.25452 411.796C4.80349 411.796 5.00935 412.345 4.80349 413.168C4.529 414.128 3.84279 414.54 2.47037 414.54C1.37243 414.54 0.411728 414.745 0.411728 415.02C-0.274485 418.517 0 419.958 1.37243 420.163C2.53899 420.3 2.95071 420.918 3.08796 422.564C3.29382 424.553 3.15658 424.69 1.64691 424.484L0 424.141L0.205864 437.172C0.274485 444.304 0.754834 451.848 1.16656 453.906C1.57829 456.032 2.05864 459.667 2.19588 461.998C2.67623 469.68 3.08796 473.109 3.91141 476.949C4.32314 479.007 4.73487 481.613 4.80349 482.779C4.87211 483.876 5.21522 485.248 5.55832 485.728C5.83281 486.208 6.24453 488.471 6.4504 490.734C6.65626 492.929 7.06799 494.781 7.27385 494.781C7.47972 494.781 7.68558 496.084 7.7542 497.73C7.82282 501.022 8.37179 503.971 9.12663 505.205C9.46973 505.685 9.88146 507.88 10.1559 510.006C10.4304 512.132 11.2539 515.287 12.0773 516.933C12.9008 518.579 13.7243 521.254 13.9301 522.968C14.2046 524.614 14.685 526.534 15.0281 527.22C15.3712 527.906 15.8515 529.346 15.9888 530.306C16.1946 531.335 16.5377 532.295 16.8122 532.501C17.2239 532.775 19.4198 538.262 19.9688 540.388C20.655 543.063 21.2726 544.16 22.1647 544.16C22.7136 544.16 23.1254 544.846 23.1254 545.875C23.1254 548.138 25.1154 553.967 26.1447 554.79C26.6251 555.133 27.1054 555.75 27.2426 556.162C27.3113 556.505 27.6544 557.534 27.9975 558.425C28.3406 559.317 28.6151 560.414 28.6151 560.963C28.6151 561.511 28.8896 562.06 29.2327 562.266C29.5071 562.471 29.9875 563.637 30.262 564.803C30.4678 566.038 31.4285 567.958 32.252 569.124C33.9675 571.387 34.8596 573.17 35.2713 575.296C35.4086 576.051 35.8203 577.011 36.232 577.56C36.6438 578.04 36.781 578.451 36.4379 578.451C36.0948 578.451 36.232 578.725 36.781 579.068C37.33 579.411 37.8789 580.577 38.0162 581.606C38.1534 582.566 38.8396 583.938 39.5258 584.555C40.2121 585.172 41.1728 586.75 41.6531 588.053C42.751 591.139 44.0549 593.745 46.4566 597.997C47.5545 599.849 48.8583 602.112 49.2701 602.935C49.7504 603.758 50.5052 604.512 51.1228 604.65C51.6718 604.787 52.2208 605.747 52.2894 606.913C52.5639 609.862 58.8084 622.412 60.2495 622.892C60.5926 623.03 60.8671 623.853 60.8671 624.744C60.8671 625.567 61.3474 626.664 61.8278 627.145C62.3767 627.556 63.2002 629.065 63.6805 630.436C64.1609 631.808 65.3961 634.483 66.494 636.403C67.5233 638.255 68.6213 640.312 68.8957 640.861C69.1702 641.41 70.6799 644.153 72.3268 646.896C73.9737 649.708 75.2775 652.589 75.2775 653.412C75.3461 655.126 76.7872 657.321 77.9538 657.321C78.3655 657.321 78.7086 657.938 78.7086 658.761C78.7086 659.515 79.1889 660.613 79.7379 661.161C80.2869 661.71 81.0417 663.425 81.4534 664.933C81.8652 666.442 82.9631 668.705 83.8552 670.077C84.7473 671.449 85.708 673.095 85.9138 673.849C86.1883 674.535 86.6687 675.152 87.0118 675.152C87.3549 675.152 87.6294 675.564 87.6294 676.112C87.6294 676.661 88.3842 678.033 89.3449 679.13C90.3056 680.296 91.0604 681.393 91.0604 681.667C91.0604 682.833 93.3249 686.811 94.0798 686.811C94.4915 686.811 95.7267 688.869 96.8932 691.338C97.9912 693.875 99.2263 696.275 99.6381 696.687C99.9812 697.098 101.285 699.362 102.383 701.693C103.961 705.054 104.716 705.946 105.677 705.603C106.432 705.397 106.843 705.603 106.843 706.288C106.843 707.729 109.245 711.638 110.961 712.872C111.715 713.421 112.333 714.244 112.333 714.655C112.333 715.067 112.951 715.616 113.705 715.821C114.529 716.027 115.078 716.782 115.078 717.605C115.078 718.496 115.695 719.319 116.656 719.662C117.548 720.005 118.783 721.102 119.47 722.131C120.499 723.708 121.048 723.914 123.038 723.64C124.822 723.365 125.371 723.503 125.371 724.257C125.371 724.806 125.097 725.149 124.753 724.874C123.312 724.051 123.244 726.177 124.616 728.029C125.371 729.058 126.057 730.155 126.057 730.361C126.057 730.567 127.292 731.87 128.802 733.378C130.312 734.819 131.547 736.327 131.547 736.739C131.547 737.082 132.233 737.562 133.125 737.836C133.949 738.042 136.076 740.031 137.723 742.294C139.438 744.557 141.428 746.752 142.252 747.163C143.693 747.986 146.438 751.964 145.546 751.964C145.203 751.964 146.026 752.719 147.261 753.679C150.143 755.736 152.133 757.862 152.133 758.822C152.133 759.165 152.408 759.508 152.751 759.508C153.025 759.508 155.153 761.36 157.349 763.623C159.544 765.886 161.74 767.738 162.289 767.738C162.77 767.738 163.868 768.081 164.622 768.493C165.72 769.11 165.858 769.384 165.103 769.796C163.868 770.619 165.309 773.636 167.161 774.253C167.985 774.459 168.602 775.008 168.602 775.351C168.602 775.694 169.083 775.968 169.632 775.968C170.181 775.968 170.661 776.448 170.661 776.997C170.661 777.545 171.004 778.025 171.347 778.025C171.759 778.025 172.034 778.437 172.034 778.917C172.034 780.014 173.269 781.523 179.513 788.038C182.121 790.713 184.728 793.114 185.346 793.319C185.964 793.594 186.444 794.074 186.444 794.485C186.444 794.828 186.924 795.171 187.473 795.171C188.022 795.171 188.503 795.72 188.503 796.474C188.503 797.914 189.669 799.012 191.591 799.355C192.277 799.492 193.1 800.315 193.306 801.138C193.855 803.607 197.972 807.516 199.962 807.516C200.992 807.516 201.541 807.722 201.335 807.996C200.786 808.476 202.776 810.945 203.805 810.945C204.148 810.945 205.452 811.768 206.687 812.797C211.559 816.843 212.932 817.803 215.814 818.901C217.392 819.518 218.696 820.272 218.696 820.615C218.696 820.889 219.863 821.85 221.304 822.673C222.676 823.564 224.117 824.661 224.392 825.141C224.666 825.622 225.489 826.033 226.244 826.033C226.931 826.033 227.617 826.239 227.754 826.513C228.097 827.336 233.518 831.451 234.547 831.657C235.577 831.863 235.989 832.205 239.008 834.606C240.243 835.566 241.684 836.32 242.302 836.32C242.919 836.32 243.605 836.732 243.811 837.281C244.223 838.446 247.586 839.887 248.958 839.612C249.507 839.475 249.987 840.092 250.125 840.984C250.262 841.807 250.673 842.493 251.017 842.493C252.115 842.493 256.506 845.648 256.026 846.128C255.614 846.471 257.81 847.911 258.496 847.774C258.702 847.705 259.937 848.528 261.31 849.557C262.682 850.586 264.055 851.408 264.466 851.408C264.809 851.408 265.702 852.026 266.388 852.78C267.074 853.535 267.897 853.946 268.172 853.74C268.515 853.535 268.789 853.672 268.789 854.015C268.789 854.426 269.476 854.838 270.368 855.112C271.26 855.318 275.446 858.13 279.7 861.353C283.955 864.576 287.866 867.182 288.415 867.182C288.964 867.182 289.376 867.662 289.376 868.211C289.376 868.76 289.925 869.24 290.68 869.24C291.366 869.24 292.738 869.857 293.699 870.612C294.66 871.366 295.826 871.983 296.375 871.983C296.856 871.983 298.228 872.532 299.326 873.218C300.493 873.972 302.208 874.384 303.375 874.246C304.473 874.109 306.325 874.452 307.492 875.001C308.658 875.549 311.197 876.167 313.05 876.441C314.972 876.715 317.442 877.127 318.54 877.47C319.706 877.813 322.108 878.224 323.961 878.498C325.814 878.704 327.872 879.184 328.559 879.527C329.176 879.87 331.372 880.35 333.431 880.556C335.421 880.762 339.538 881.653 342.557 882.545C348.733 884.397 353.537 885.7 355.595 886.111C356.35 886.248 357.723 886.523 358.683 886.728C359.644 887.003 361.154 887.277 362.046 887.483C363.006 887.689 363.967 887.963 364.242 888.1C364.448 888.306 366.163 888.58 368.016 888.786C369.869 889.06 372.27 889.677 373.368 890.226C374.466 890.775 375.907 891.186 376.525 891.186C377.211 891.186 380.779 892.009 384.485 892.969C388.259 893.998 391.896 894.89 392.651 895.027C397.248 895.918 406.787 898.182 413.718 899.965C427.854 903.668 430.187 903.805 447.891 901.336C453.998 900.513 454.547 900.445 466.419 899.416C471.497 899.005 479.525 898.182 484.26 897.633C488.995 897.084 494.21 896.536 495.926 896.33C497.641 896.124 500.592 895.781 502.445 895.507C504.366 895.233 506.356 895.095 507.043 895.233C508.895 895.438 520.081 893.312 523.031 892.078C524.541 891.461 527.08 890.363 528.658 889.677C530.236 888.923 531.883 888.511 532.295 888.786C532.707 889.06 534.011 888.923 535.246 888.511C536.412 888.1 538.197 887.689 539.157 887.483C540.118 887.346 542.863 886.866 545.333 886.385C547.804 885.905 550.823 885.562 552.058 885.562C553.225 885.631 554.254 885.425 554.254 885.151C554.254 884.877 555.283 884.534 556.518 884.465C559.195 884.259 560.498 884.054 564.204 883.093C565.714 882.682 569.008 882.202 571.546 882.065C574.017 881.859 576.419 881.516 576.83 881.31C577.242 881.036 579.026 880.693 580.81 880.487C582.663 880.282 584.859 879.87 585.82 879.527C586.78 879.184 588.77 878.773 590.28 878.567C597.348 877.675 609.837 873.835 609.837 872.669C609.837 872.326 611.141 871.983 612.788 871.777C615.876 871.435 622.189 869.24 623.699 868.074C624.179 867.662 625.826 866.977 627.336 866.497C630.767 865.331 637.492 862.244 638.041 861.49C638.246 861.147 638.658 860.941 638.933 860.941C639.138 861.01 639.482 860.941 639.687 860.941C639.893 860.873 640.236 860.804 640.579 860.736C640.854 860.667 642.501 859.913 644.285 859.09C646.069 858.267 647.853 857.581 648.196 857.581C648.608 857.581 648.951 857.307 648.951 856.895C648.951 856.552 649.775 856.004 650.873 855.798C651.902 855.523 652.863 855.112 653.069 854.838C653.274 854.632 656.225 853.054 659.588 851.34C663.019 849.694 665.901 848.117 665.969 847.774C666.107 847.499 666.793 847.294 667.548 847.294C668.234 847.294 668.851 847.019 668.851 846.745C668.851 846.402 669.675 845.716 670.773 845.236C671.802 844.687 673.037 843.933 673.586 843.59C674.067 843.179 674.821 842.836 675.302 842.767C675.714 842.699 677.635 841.738 679.556 840.572C681.478 839.475 683.742 838.309 684.497 838.035C685.321 837.829 686.007 837.281 686.007 836.938C686.007 836.595 686.624 836.32 687.311 836.32C688.065 836.32 689.095 835.909 689.575 835.429C690.536 834.606 692.732 833.371 698.015 830.628C699.525 829.874 702.064 828.365 703.642 827.268C705.221 826.239 706.936 825.347 707.417 825.347C707.966 825.347 708.995 824.799 709.75 824.181C711.191 822.81 717.641 819.518 718.465 819.723C718.739 819.792 718.945 819.586 718.945 819.175C718.945 818.832 719.288 818.489 719.7 818.489C720.112 818.489 721.827 817.529 723.543 816.432C725.19 815.266 727.18 814.374 727.934 814.374C728.621 814.374 729.238 814.1 729.238 813.688C729.238 813.345 731.434 811.768 734.11 810.122C736.855 808.476 739.943 806.624 740.972 806.007C742.07 805.321 742.962 805.047 742.962 805.321C742.962 805.596 743.306 805.253 743.717 804.567C744.06 803.95 745.021 803.401 745.707 803.401C746.393 803.401 747.286 802.989 747.56 802.441C747.835 801.961 749.481 800.795 751.128 799.972C752.844 799.149 754.628 797.983 755.177 797.503C755.657 796.954 756.344 796.543 756.618 796.543C756.961 796.543 758.265 795.651 759.5 794.485C760.804 793.388 762.245 792.428 762.725 792.428C763.137 792.428 763.549 792.153 763.549 791.879C763.549 791.536 765.882 789.822 768.695 787.901C771.509 786.05 773.842 784.335 773.842 783.992C773.842 783.718 774.185 783.512 774.528 783.512C775.42 783.512 784.341 776.791 784.684 775.899C784.821 775.557 785.233 775.282 785.645 775.282C786.331 775.282 790.723 771.922 793.33 769.453C794.085 768.63 796.144 766.984 797.859 765.681C799.575 764.378 801.839 762.457 802.937 761.429C804.104 760.4 805.408 759.508 805.888 759.508C806.368 759.508 806.78 759.028 806.78 758.48C806.78 757.862 807.329 757.176 807.947 756.971C809.113 756.491 810.074 755.805 813.985 752.444C815.221 751.416 816.593 750.593 817.005 750.593C817.416 750.593 817.76 750.113 817.76 749.564C817.76 749.015 818.103 748.535 818.514 748.535C818.995 748.535 819.887 747.849 820.573 747.026C821.328 746.272 821.877 745.792 821.877 745.998C821.877 746.272 822.838 745.518 823.936 744.42C825.102 743.254 826.269 742.363 826.543 742.363C826.818 742.363 828.259 741.265 829.631 739.962C831.003 738.659 832.307 737.562 832.513 737.562C832.925 737.562 844.591 728.715 845.963 727.343C847.541 725.766 850.698 723.091 853.443 721.034C854.746 720.005 856.668 718.496 857.629 717.605C858.589 716.713 860.854 714.724 862.775 713.215C864.628 711.706 866.481 710.198 866.892 709.786C867.304 709.443 868.471 708.483 869.569 707.729C870.598 706.974 872.039 705.74 872.725 705.054C873.48 704.3 874.029 703.888 874.029 704.162C874.029 704.368 875.676 702.859 877.666 700.733C879.587 698.607 881.166 696.618 881.028 696.344C880.96 696.001 881.372 695.727 881.92 695.727C882.538 695.727 883.156 695.247 883.362 694.698C883.636 694.149 884.185 693.669 884.734 693.669C885.283 693.669 885.695 693.258 885.695 692.709C885.695 692.229 886.724 690.995 888.028 690.034C891.116 687.634 894.615 684.136 894.615 683.313C894.615 682.97 895.096 682.696 895.645 682.696C896.194 682.696 896.674 682.216 896.674 681.667C896.674 681.119 897.017 680.639 897.429 680.639C897.772 680.639 897.909 680.296 897.703 679.953C897.497 679.541 897.566 679.267 897.978 679.267C898.39 679.267 899.282 678.101 899.968 676.73C902.644 671.312 904.497 668.294 905.046 668.294C905.32 668.294 905.595 667.814 905.595 667.197C905.595 666.648 906.556 664.453 907.653 662.396C908.82 660.407 909.575 658.692 909.369 658.692C909.163 658.692 909.849 657.389 910.879 655.743C912.8 652.863 913.143 651.903 913.349 649.64C913.418 648.954 913.692 648.405 913.967 648.405C914.241 648.405 914.516 647.925 914.516 647.376C914.516 646.828 914.996 646.348 915.545 646.348C916.437 646.348 916.711 645.456 916.574 643.261C916.506 643.056 916.986 642.37 917.604 641.753C918.221 641.204 918.564 640.244 918.358 639.764C918.152 639.215 918.29 638.804 918.633 638.804C919.113 638.804 920.211 635.374 920.005 634.346C920.005 634.14 920.417 633.454 921.035 632.905C921.584 632.288 921.927 631.534 921.721 631.191C921.446 630.848 921.584 630.574 921.858 630.574C922.476 630.574 925.22 621.864 925.083 620.423C925.015 619.943 925.083 619.669 925.289 619.875C925.907 620.423 928.308 615.486 927.897 614.8C927.622 614.388 927.691 614.114 928.034 614.114C928.857 614.114 930.436 608.696 929.887 607.804C929.612 607.324 929.681 607.256 930.161 607.53C930.642 607.804 930.847 607.324 930.71 606.09C930.642 604.924 931.053 603.689 931.945 603.004C932.632 602.318 933.043 601.769 932.7 601.769C932.426 601.769 932.494 601.358 932.837 600.878C933.592 599.986 934.69 596.283 934.553 595.391C934.484 595.117 934.69 594.911 935.033 594.911C935.445 594.911 935.72 594.362 935.72 593.676C935.72 593.059 935.788 592.03 935.994 591.482C936.131 590.933 936.474 589.63 936.817 588.533C937.092 587.504 937.572 586.681 937.847 586.681C938.121 586.681 938.739 584.761 939.151 582.429C939.562 580.029 940.18 578.04 940.523 577.902C940.935 577.765 941.003 577.217 940.798 576.668C940.592 576.119 940.798 575.708 941.209 575.708C941.621 575.708 941.895 575.502 941.827 575.159C941.758 574.611 942.513 571.181 943.131 569.535C943.405 568.987 943.474 568.301 943.474 567.958C943.405 567.684 943.611 567.478 943.885 567.478C944.16 567.478 944.434 566.929 944.434 566.243C944.572 564.117 946.562 556.025 947.317 554.79C947.522 554.447 947.797 553.419 947.866 552.527C948.003 551.635 948.346 550.538 948.689 550.127C949.101 549.647 949.444 548.069 949.581 546.56C949.65 545.052 949.993 543.474 950.267 543.131C950.679 542.445 951.159 540.799 951.983 536.273C952.6 533.255 952.806 532.158 952.943 532.158C953.492 532.158 955.757 520.293 955.551 518.305C955.414 517.139 955.482 516.247 955.757 516.453C956.031 516.59 956.375 515.836 956.58 514.807C956.786 513.778 957.129 512.201 957.404 511.241C957.61 510.28 958.021 508.566 958.159 507.469C958.365 506.303 958.845 504.039 959.188 502.325C959.531 500.61 960.011 498.004 960.149 496.495C960.492 493.615 961.041 489.294 961.521 486.482C961.658 485.591 961.933 482.847 962.207 480.379C962.482 477.91 962.756 475.372 962.894 474.686C963.717 469.885 964.06 459.324 963.992 440.944C963.923 411.316 963.099 396.502 960.835 380.248C960.629 378.534 960.355 376.202 960.217 375.105C960.149 373.939 959.051 370.921 957.884 368.384C956.649 365.778 955.688 363.377 955.688 362.966C955.688 362.006 952.257 354.804 950.61 352.541C949.856 351.444 949.581 350.689 949.993 350.964C950.404 351.238 949.856 349.729 948.758 347.603C947.66 345.477 946.973 343.42 947.179 343.145C947.385 342.803 947.248 342.528 946.905 342.528C946.424 342.528 942.444 334.23 942.307 332.927C942.307 332.721 941.415 330.938 940.386 328.949C939.356 326.891 938.533 324.697 938.533 324.011C938.533 323.257 938.121 322.434 937.641 322.159C936.886 321.679 933.798 312.763 933.592 310.432C933.524 310.02 933.249 309.609 932.975 309.609C932.7 309.609 932.288 308.854 932.083 307.894C931.877 307.003 931.328 305.357 930.847 304.328C930.436 303.299 930.024 302.202 930.024 301.927C929.955 301.722 929.749 301.31 929.475 301.036C929.201 300.762 929.201 300.144 929.406 299.596C929.612 299.047 929.475 298.636 929.063 298.636C928.72 298.636 927.965 297.332 927.348 295.686C925.426 290.406 924.26 287.319 922.682 283.89C921.858 281.97 921.103 280.118 920.966 279.775C920.897 279.364 920.005 277.306 919.045 275.112C918.084 272.986 917.26 271.065 917.26 270.86C917.192 270.723 916.711 269.351 916.094 267.979C915.476 266.539 914.927 265.236 914.859 265.03C914.79 264.824 914.241 263.521 913.623 262.013C913.006 260.572 912.457 259.201 912.457 258.926C912.457 258.652 912.045 258.035 911.633 257.555C911.153 257.143 910.741 256.526 910.673 256.252C910.604 255.36 908.957 251.725 907.31 248.433C906.35 246.65 905.595 244.593 905.595 243.838C905.595 243.084 905.389 242.398 905.114 242.261C904.428 241.987 900.791 234.717 900.791 233.62C900.791 233.208 900.517 232.797 900.174 232.797C899.831 232.797 899.282 231.768 899.007 230.602C898.458 227.996 895.851 222.303 895.164 221.961C894.821 221.823 894.615 221 894.615 220.177C894.615 219.354 894.272 218.326 893.792 217.846C893.38 217.434 892.9 216.611 892.831 216.131C892.763 215.582 891.871 213.936 890.91 212.359C889.949 210.782 889.126 209.136 889.126 208.724C889.126 207.695 883.43 196.242 882.607 195.625C882.264 195.351 882.126 195.076 882.469 195.076C882.744 195.076 882.469 194.116 881.852 192.95C881.234 191.784 880.617 190.07 880.479 189.178C880.342 188.287 879.862 186.709 879.381 185.681C878.97 184.583 878.558 183.623 878.489 183.417C878.421 183.074 874.921 176.079 873.549 173.473C870.941 168.535 870.598 167.643 871.078 167.643C871.353 167.643 871.353 167.369 870.941 167.095C870.598 166.82 869.363 164.694 868.265 162.294C867.167 159.962 865.932 158.042 865.657 158.042C865.314 158.042 865.246 157.699 865.52 157.287C865.726 156.876 865.726 156.327 865.383 156.053C864.422 155.367 861.677 149.606 861.677 148.235C861.677 147.617 861.403 147.069 861.128 147.069C860.785 147.069 859.481 144.806 858.246 141.994C856.462 138.016 855.364 136.644 853.237 135.341C851.796 134.45 850.286 133.764 849.943 133.832C849.6 133.97 849.325 133.695 849.325 133.352C849.325 132.941 848.845 132.666 848.296 132.666C847.747 132.666 847.267 132.392 847.267 132.118C847.267 131.843 846.1 131.158 844.728 130.678C843.287 130.129 841.297 129.169 840.267 128.414C839.169 127.66 838.346 127.248 838.346 127.454C838.346 127.797 834.023 125.122 832.376 123.751C831.896 123.408 830.935 123.065 830.111 123.065C829.357 123.065 828.739 122.722 828.739 122.379C828.739 121.968 828.396 121.693 827.984 121.693C827.504 121.693 825.651 120.802 823.867 119.636C822.014 118.539 820.504 117.853 820.504 118.127C820.504 118.401 820.23 118.264 819.955 117.921C819.681 117.51 818.858 116.893 818.103 116.481C817.348 116.07 815.289 114.904 813.505 113.944C811.652 112.915 810.211 112.298 810.211 112.503C810.211 112.846 809.525 112.435 804.79 109.554C803.418 108.731 800.879 107.36 799.095 106.537C797.242 105.714 795.801 104.616 795.801 104.136C795.801 103.588 795.252 103.176 794.497 103.176C793.811 103.176 792.85 102.696 792.37 102.147C791.889 101.599 791.066 101.119 790.517 101.119C789.968 101.119 788.596 100.501 787.498 99.6784C786.4 98.924 785.508 98.5125 785.508 98.7183C785.508 98.9926 785.027 98.6497 784.41 98.101C783.861 97.4838 783.037 97.1409 782.694 97.3466C782.351 97.6209 782.077 97.4838 782.077 97.2094C782.077 96.8665 779.538 95.4263 776.45 93.9175C773.293 92.4773 770.685 90.9685 770.548 90.6941C770.411 90.4198 769.725 90.1455 768.97 90.1455C768.284 90.1455 767.666 89.8711 767.666 89.4596C767.666 88.7738 763.206 86.5106 761.765 86.3734C761.353 86.3734 760.461 85.962 759.843 85.4133C759.226 84.9332 758.745 84.7275 758.745 85.0018C758.745 85.3447 758.196 85.0018 757.441 84.3846C755.589 82.7386 751.54 80.7497 750.305 80.9555C749.687 81.024 749.07 80.6811 748.864 80.1325C748.658 79.5838 747.835 79.1723 747.08 79.1723C746.325 79.1723 745.707 78.9666 745.707 78.6237C745.707 78.075 740.423 75.5375 738.845 75.4003C737.816 75.2631 737.198 75.0574 732.669 73.3428C725.807 70.6681 720.043 68.9536 719.425 69.365C719.014 69.5708 718.945 69.4336 719.219 69.0221C719.494 68.5421 719.494 68.1992 719.151 68.1306C717.298 67.9934 715.926 67.5133 714.485 66.5532C712.975 65.5244 709.681 64.6329 707.142 64.4957C706.525 64.4957 706.113 64.3585 706.319 64.1528C706.73 63.7413 701.721 61.4095 700.28 61.3409C699.594 61.3409 699.045 61.0666 699.045 60.7237C699.045 60.3808 697.535 59.7635 695.614 59.2835C693.761 58.8034 692.183 58.1861 692.183 57.9118C692.183 57.5689 690.947 57.1574 689.438 56.8831C687.928 56.6088 686.556 56.1973 686.35 55.8543C686.144 55.58 684.84 55.0999 683.468 54.8256C682.027 54.5513 680.517 54.0712 680.105 53.7283C679.694 53.3854 677.223 52.4938 674.616 51.7394C672.008 50.9164 668.989 49.8877 667.822 49.4076C666.724 48.859 664.048 47.9674 661.989 47.2816C659.931 46.6643 657.598 45.8413 656.843 45.4984C655.059 44.744 650.186 43.0295 645.863 41.6578C644.011 41.1092 642.158 40.4233 641.746 40.2176C641.403 39.9433 640.442 39.6689 639.756 39.6004C639.001 39.4632 638.109 39.1203 637.697 38.7774C636.531 37.8172 632.414 37.1314 632.619 37.8858C632.757 38.2973 632.619 38.5716 632.345 38.6402C632.002 38.7088 631.796 38.503 631.727 38.1601C631.521 36.5142 630.218 35.4854 628.228 35.4168C626.924 35.3483 624.797 34.8682 623.356 34.2509C621.983 33.7023 620.199 33.2222 619.444 33.2222C618.689 33.2222 618.072 32.9479 618.072 32.605C618.072 32.2621 616.288 31.5762 614.16 31.0962C611.964 30.6161 609.906 29.9988 609.494 29.7245C607.916 28.6272 597.211 25.6782 596.044 26.0211C595.152 26.2954 594.74 26.0896 594.74 25.4724C594.74 24.5123 591.996 23.6207 589.045 23.5521C588.359 23.5521 587.672 23.1406 587.467 22.7291C587.329 22.249 586.231 21.769 585.065 21.7004C583.898 21.6318 581.359 20.7402 579.438 19.7115C577.448 18.6828 575.252 17.7912 574.497 17.654C572.095 17.2425 566.263 15.1165 565.165 14.2249C564.616 13.7448 563.449 13.3334 562.557 13.3334C561.734 13.3334 560.087 12.9219 558.852 12.4418C557.616 11.8931 556.107 11.5502 555.421 11.6874C554.803 11.756 554.254 11.6188 554.254 11.2759C554.254 10.933 553.705 10.7958 553.087 10.933C552.401 11.0016 551.44 10.7958 551.029 10.3843C550.548 10.0414 550.137 9.97282 550.137 10.2471C550.137 10.5215 549.656 10.3843 549.107 9.90424C548.558 9.49274 547.804 9.287 547.46 9.49274C547.117 9.76707 546.637 9.69849 546.431 9.35558C546.225 9.01267 544.441 8.73834 542.451 8.60117C540.461 8.53259 537.922 8.18968 536.756 7.84677C535.658 7.50386 533.324 7.09237 531.609 6.88662C529.893 6.68087 527.766 6.33796 526.874 6.13221C523.923 5.58356 514.179 4.28049 511.503 4.07475C509.993 4.00616 508.621 3.66325 508.415 3.25176C508.14 2.90885 506.425 2.56594 504.504 2.56594C499.975 2.56594 487.485 1.60578 486.868 1.19429C486.525 1.05713 486.319 1.26287 486.319 1.67437C486.319 2.08586 485.976 2.22303 485.495 1.88011C483.917 0.919962 482.064 0.919962 482.613 1.81153C483.025 2.49735 482.888 2.49735 482.064 1.81153C480.623 0.714216 478.359 0.165558 475.339 0.302722C472.595 0.508469 471.497 0.439887 466.899 0.0969754C465.115 0.0283932 463.537 -0.0401891 463.468 0.0283932ZM42.3393 279.707C42.3393 280.804 41.2414 281.696 39.5258 281.97C38.2907 282.176 38.0162 280.05 39.1827 279.295C40.4865 278.404 42.3393 278.678 42.3393 279.707ZM356.625 518.785C356.625 519.127 356.282 519.47 355.87 519.47C355.527 519.47 355.39 519.127 355.595 518.785C355.801 518.373 356.144 518.099 356.35 518.099C356.487 518.099 356.625 518.373 356.625 518.785ZM202.021 806.281C201.815 806.761 201.678 806.419 201.678 805.458C201.678 804.498 201.815 804.155 202.021 804.567C202.158 805.047 202.158 805.87 202.021 806.281Z" fill="black"/>
</svg>
