<svg width="903" height="964" viewBox="0 0 903 964" fill="none" xmlns="http://www.w3.org/2000/svg">
<path d="M0.0283729 500.532C0.0969552 500.601 0.302702 502.248 0.508449 504.238C0.919943 508.355 1.4686 509.453 2.56592 508.767C3.04599 508.561 2.90883 508.904 2.29159 509.659C1.4686 510.688 1.26285 512.198 1.40002 516.315C1.53718 519.197 1.74293 521.873 1.94868 522.216C2.15442 522.491 2.36017 525.442 2.42875 528.735C2.49734 531.961 2.77166 534.637 3.04599 534.637C3.32032 534.637 3.73182 536.558 4.00615 538.891C4.28047 541.293 4.62339 544.107 4.82913 545.273C5.10346 547.194 5.30921 548.91 6.1322 557.968C6.33794 560.027 6.81802 563.252 7.22951 565.173C7.57242 567.026 8.12108 570.32 8.25825 572.378C8.46399 574.437 9.08123 577.731 9.62989 579.652C10.1785 581.574 10.933 585.485 11.2759 588.23C12.236 595.916 13.4019 602.778 14.0877 604.287C14.4307 605.042 14.7736 606.689 14.8421 607.856C14.9107 609.091 15.2536 610.12 15.5965 610.12C15.9395 610.12 16.0766 610.463 15.9395 610.944C15.7337 611.424 16.0766 613.483 16.6253 615.61C17.1054 617.669 17.7912 620.619 18.1341 622.129C18.4084 623.639 19.0257 624.942 19.3686 625.08C19.7801 625.217 19.9172 625.766 19.7115 626.315C19.5057 626.864 19.6429 627.276 19.9172 627.276C20.2601 627.276 20.4659 628.717 20.3973 630.501C20.3287 634 20.7402 635.716 21.5632 635.167C21.8375 634.961 22.0433 636.059 21.9747 637.569C21.9747 639.078 22.1119 640.314 22.3862 640.314C22.7291 640.314 22.9349 641.411 22.9349 642.715C22.9349 644.019 23.1406 645.117 23.4149 645.117C23.7578 645.117 24.0322 646.695 24.1693 648.548C24.3065 650.469 24.7866 653.489 25.3352 655.273C25.8839 657.057 26.364 659.322 26.364 660.351C26.364 661.38 26.6383 662.41 27.0498 662.615C27.3927 662.821 27.7356 663.782 27.7356 664.674C27.7356 665.566 28.0099 666.458 28.3529 666.664C28.6958 666.939 28.9015 667.625 28.8329 668.311C28.6958 668.929 29.0387 670.713 29.5873 672.154C30.0674 673.663 30.6846 676.408 30.8904 678.33C31.1647 680.251 31.6448 682.584 32.0563 683.545C32.4678 684.506 32.7421 685.466 32.6735 685.741C32.605 686.084 32.8107 686.29 33.2222 686.29C33.5651 686.29 33.7023 686.702 33.4965 687.182C33.3594 687.662 33.6337 689.241 34.2509 690.613C34.7996 691.985 35.2797 694.387 35.2797 695.897C35.2797 697.475 35.554 698.573 35.8283 698.367C36.1712 698.161 36.8571 699.74 37.3371 701.935C37.8172 704.063 38.503 706.19 38.8459 706.602C39.1888 707.082 39.6003 708.18 39.7375 709.003C39.9433 709.896 40.4233 710.925 40.9034 711.337C41.3835 711.68 41.7264 712.846 41.5892 713.876C41.4521 715.111 42.4122 717.856 44.3325 721.424C45.9785 724.58 47.213 727.325 47.0758 727.6C47.0072 727.943 47.213 728.149 47.5559 728.149C47.8988 728.149 48.3789 728.904 48.5846 729.864C48.8589 730.825 49.339 731.58 49.7505 731.58C50.162 731.58 50.2992 731.854 50.0934 732.129C49.8877 732.472 50.3678 733.433 51.1222 734.187C51.808 735.011 52.4252 735.834 52.4252 736.04C52.3566 737.344 52.4938 737.756 53.2482 738.579C53.7283 739.06 54.8942 741.05 55.8543 742.902C56.8145 744.755 57.8432 746.608 58.1176 747.02C58.3919 747.363 59.8321 749.627 61.2723 751.96C62.7126 754.362 64.0842 756.078 64.29 755.803C64.5643 755.597 64.77 756.146 64.77 757.038C64.77 757.999 65.4559 759.234 66.4846 759.989C67.4447 760.675 68.1991 761.842 68.1991 762.528C68.1991 763.283 68.6792 763.832 69.2965 763.832C69.8451 763.832 70.1194 764.106 69.9137 764.518C69.708 764.861 69.8451 765.204 70.188 765.204C70.5995 765.204 70.9424 765.547 70.9424 765.89C70.9424 766.714 76.429 774.88 78.075 776.527C78.6922 777.144 79.1723 778.036 79.1723 778.585C79.1723 779.477 82.6014 782.085 83.4244 781.811C83.7673 781.742 83.9731 782.36 83.9731 783.252C83.9731 784.624 85.5505 787.026 88.911 790.663C89.5968 791.418 90.1455 792.447 90.1455 792.996C90.1455 793.545 90.7627 794.025 91.5171 794.025C92.2715 794.025 92.8888 794.437 92.8888 794.986C92.8888 795.535 94.7405 798.28 97.0037 801.093C99.2669 803.907 101.119 806.583 101.119 807.063C101.119 807.475 101.324 807.681 101.667 807.475C102.216 807.132 105.028 808.985 104.685 809.465C104.136 810.563 104.685 811.935 105.576 811.592C106.125 811.386 106.537 811.455 106.468 811.729C106.194 812.827 108.183 815.778 110.103 817.013C111.406 817.905 112.092 819.003 112.092 820.033C112.092 820.925 112.298 821.542 112.503 821.268C113.052 820.719 113.738 821.474 117.51 826.62C119.224 828.885 121.213 831.355 121.968 832.179C122.791 833.002 123.957 834.374 124.574 835.267C125.26 836.159 126.7 838.011 127.866 839.315C131.432 843.364 134.724 847.618 134.724 848.236C134.724 848.51 135.41 848.922 136.233 849.128C137.056 849.403 137.536 849.746 137.33 850.02C136.644 850.638 140.622 854.48 142.131 854.618C142.954 854.686 143.365 855.098 143.16 855.853C142.954 856.471 143.297 857.431 143.914 857.98C144.463 858.598 144.737 859.215 144.531 859.49C144.257 859.696 144.463 859.902 144.874 859.902C145.286 859.902 147.137 861.48 148.92 863.47C150.704 865.391 153.035 867.862 154.064 868.96C155.161 870.058 155.984 871.361 155.984 871.91C155.984 872.459 156.396 872.94 156.876 872.94C157.768 872.94 162.157 877.4 162.157 878.429C162.157 878.772 162.774 879.253 163.528 879.459C164.283 879.665 164.9 880.351 164.9 880.9C164.9 881.449 165.38 881.86 165.929 881.86C166.478 881.86 166.958 882.272 166.958 882.821C166.958 883.782 168.809 884.948 169.907 884.674C170.25 884.605 170.318 884.88 170.112 885.223C169.632 885.909 173.13 888.723 174.433 888.723C174.845 888.723 175.187 888.997 175.187 889.34C175.187 889.683 176.285 890.369 177.519 890.85C178.822 891.33 179.782 891.948 179.577 892.291C179.371 892.565 179.988 892.84 180.88 892.84C181.84 892.84 182.8 893.32 183.006 893.938C183.212 894.487 183.692 894.761 184.103 894.555C184.446 894.349 184.789 894.418 184.789 894.761C184.789 895.173 185.612 895.653 186.572 895.859C187.601 896.134 188.835 896.82 189.453 897.369C190.001 897.986 190.687 898.124 190.893 897.849C191.579 896.82 193.636 896.271 194.048 897.026C194.322 897.369 194.802 897.437 195.213 897.232C195.694 896.957 195.762 897.094 195.488 897.506C195.213 897.986 194.528 898.329 193.979 898.329C193.43 898.329 193.019 898.535 193.019 898.741C193.019 899.496 195.899 901.761 196.928 901.761C197.408 901.761 197.82 902.035 197.82 902.447C197.82 902.79 198.231 903.133 198.78 903.133C199.328 903.133 199.946 903.613 200.151 904.231C200.357 904.78 200.837 905.123 201.18 904.917C201.523 904.711 202.826 905.26 204.061 906.084C206.392 907.662 208.656 908.76 209.684 908.897C209.959 908.966 210.439 909.378 210.782 909.858C211.056 910.338 211.605 910.681 211.948 910.613C213.319 910.407 214.348 910.75 214.005 911.299C213.731 911.642 214.485 912.328 215.582 912.809C216.68 913.289 217.434 913.975 217.297 914.25C216.954 914.73 219.08 915.142 220.589 914.867C220.932 914.867 221.138 915.142 221.138 915.485C221.138 915.897 221.755 916.171 222.578 916.171C223.332 916.171 223.812 916.445 223.607 916.789C223.401 917.063 225.39 918.436 227.996 919.671C230.602 920.974 232.728 922.347 232.728 922.69C232.797 923.102 233.482 923.513 234.305 923.513C235.197 923.582 236.226 924.131 236.637 924.68C237.049 925.298 238.352 925.847 239.518 925.915C240.752 925.984 241.712 926.464 241.712 926.876C241.712 927.288 242.81 928.18 244.113 928.797C245.416 929.415 246.65 930.238 246.856 930.581C247.062 930.993 247.816 931.268 248.502 931.268C249.188 931.268 250.285 931.885 250.971 932.64C251.657 933.395 252.411 933.807 252.754 933.669C253.028 933.464 253.44 933.601 253.646 933.944C254.057 934.493 254.88 935.042 262.287 938.885C264.001 939.777 265.579 940.806 265.785 941.081C265.99 941.424 266.47 941.698 266.813 941.698C268.528 941.904 269.762 942.453 269.419 943.002C269.214 943.345 269.488 943.62 270.105 943.62C271.408 943.62 275.523 945.815 276.209 946.845C276.483 947.325 277.375 947.737 278.061 947.737C278.815 947.737 280.53 948.492 281.901 949.452C283.273 950.413 284.645 950.962 284.988 950.756C285.331 950.55 285.605 950.756 285.605 951.168C285.605 951.58 285.879 951.785 286.222 951.58C286.565 951.305 286.977 951.511 287.114 951.923C287.251 952.266 288.965 952.746 290.954 952.952C292.943 953.089 295.755 953.501 297.127 953.775C299.459 954.324 301.653 954.324 308.58 953.707C310.089 953.57 312.763 954.05 314.478 954.668C317.701 955.903 322.159 956.658 328.949 957.001C331.075 957.138 333.475 957.618 334.298 958.03C335.533 958.716 336.424 958.648 338.55 957.961C340.471 957.344 341.362 957.275 341.705 957.824C341.98 958.304 345.477 958.785 349.729 959.059C353.913 959.265 358.165 959.746 359.331 960.089C361.868 960.843 365.16 960.775 365.16 960.02C365.16 959.677 365.915 959.746 366.875 960.089C369.207 960.981 371.538 961.392 376.133 961.873C378.191 962.079 381.551 962.49 383.54 962.765C389.164 963.657 398.08 963.726 398.08 962.902C398.08 962.49 398.56 962.353 399.109 962.559C400.686 963.177 400.48 957.481 398.834 955.011C398.08 953.844 397.6 952.746 397.805 952.403C398.011 952.129 397.325 951.442 396.228 951.031C393.279 949.658 392.045 948.149 392.662 946.57C393.142 945.335 393.485 945.266 398.148 945.815C403.086 946.433 405.212 947.051 402.332 947.051C401.097 947.051 400.823 947.462 400.823 949.315C400.823 951.168 401.578 952.403 404.458 955.491C406.447 957.55 408.024 959.814 407.956 960.363C407.887 960.981 408.23 961.461 408.71 961.461C410.356 961.461 411.796 960.638 411.796 959.746C411.796 959.197 412.345 958.991 413.168 959.197C414.128 959.471 414.54 960.157 414.54 961.53C414.54 962.628 414.745 963.588 415.02 963.588C418.517 964.275 419.958 964 420.163 962.628C420.3 961.461 420.918 961.049 422.564 960.912C424.553 960.706 424.69 960.843 424.484 962.353L424.141 964L437.172 963.794C444.304 963.726 451.848 963.245 453.906 962.833C456.032 962.422 459.667 961.941 461.998 961.804C469.68 961.324 473.109 960.912 476.949 960.089C479.007 959.677 481.613 959.265 482.779 959.197C483.876 959.128 485.248 958.785 485.728 958.442C486.208 958.167 488.471 957.755 490.734 957.55C492.929 957.344 494.781 956.932 494.781 956.726C494.781 956.52 496.084 956.314 497.73 956.246C501.022 956.177 503.971 955.628 505.205 954.873C505.685 954.53 507.88 954.119 510.006 953.844C512.132 953.57 515.287 952.746 516.933 951.923C518.579 951.099 521.254 950.276 522.968 950.07C524.614 949.795 526.534 949.315 527.22 948.972C527.906 948.629 529.346 948.149 530.306 948.011C531.335 947.805 532.295 947.462 532.501 947.188C532.775 946.776 538.262 944.58 540.388 944.031C543.063 943.345 544.16 942.727 544.16 941.835C544.16 941.286 544.846 940.875 545.875 940.875C548.138 940.875 553.967 938.885 554.79 937.855C555.133 937.375 555.75 936.895 556.162 936.757C556.505 936.689 557.534 936.346 558.425 936.003C559.317 935.659 560.414 935.385 560.963 935.385C561.511 935.385 562.06 935.11 562.266 934.767C562.471 934.493 563.637 934.013 564.803 933.738C566.038 933.532 567.958 932.571 569.124 931.748C571.387 930.032 573.17 929.14 575.296 928.729C576.051 928.591 577.011 928.18 577.56 927.768C578.04 927.356 578.451 927.219 578.451 927.562C578.451 927.905 578.725 927.768 579.068 927.219C579.411 926.67 580.577 926.121 581.606 925.984C582.566 925.847 583.938 925.16 584.555 924.474C585.172 923.788 586.75 922.827 588.053 922.347C591.139 921.249 593.745 919.945 597.997 917.543C599.849 916.445 602.112 915.142 602.935 914.73C603.758 914.25 604.512 913.495 604.65 912.877C604.787 912.328 605.747 911.779 606.913 911.711C609.862 911.436 622.412 905.192 622.892 903.751C623.03 903.407 623.853 903.133 624.744 903.133C625.567 903.133 626.664 902.653 627.145 902.172C627.556 901.623 629.065 900.8 630.436 900.319C631.808 899.839 634.483 898.604 636.403 897.506C638.255 896.477 640.312 895.379 640.861 895.104C641.41 894.83 644.153 893.32 646.896 891.673C649.708 890.026 652.589 888.722 653.412 888.722C655.126 888.654 657.321 887.213 657.321 886.046C657.321 885.635 657.938 885.291 658.761 885.291C659.515 885.291 660.613 884.811 661.161 884.262C661.71 883.713 663.425 882.958 664.933 882.547C666.442 882.135 668.705 881.037 670.077 880.145C671.449 879.253 673.095 878.292 673.849 878.086C674.535 877.812 675.152 877.331 675.152 876.988C675.152 876.645 675.564 876.371 676.112 876.371C676.661 876.371 678.033 875.616 679.13 874.655C680.296 873.694 681.393 872.94 681.667 872.94C682.833 872.94 686.811 870.675 686.811 869.92C686.811 869.509 688.869 868.273 691.338 867.107C693.875 866.009 696.275 864.774 696.687 864.362C697.098 864.019 699.362 862.715 701.693 861.617C705.054 860.039 705.946 859.284 705.603 858.323C705.397 857.568 705.603 857.157 706.288 857.157C707.729 857.157 711.638 854.755 712.872 853.039C713.421 852.285 714.244 851.667 714.655 851.667C715.067 851.667 715.616 851.049 715.821 850.295C716.027 849.471 716.782 848.922 717.605 848.922C718.496 848.922 719.319 848.305 719.662 847.344C720.005 846.452 721.102 845.217 722.131 844.53C723.708 843.501 723.914 842.952 723.64 840.962C723.365 839.178 723.503 838.629 724.257 838.629C724.806 838.629 725.149 838.903 724.874 839.247C724.051 840.688 726.177 840.756 728.029 839.384C729.058 838.629 730.155 837.943 730.361 837.943C730.567 837.943 731.87 836.708 733.378 835.198C734.819 833.688 736.327 832.453 736.739 832.453C737.082 832.453 737.562 831.767 737.836 830.875C738.042 830.051 740.031 827.924 742.294 826.277C744.557 824.562 746.752 822.572 747.163 821.748C747.986 820.307 751.964 817.562 751.964 818.454C751.964 818.797 752.719 817.974 753.679 816.739C755.736 813.857 757.862 811.867 758.822 811.867C759.165 811.867 759.508 811.592 759.508 811.249C759.508 810.975 761.36 808.847 763.623 806.651C765.886 804.456 767.738 802.26 767.738 801.711C767.738 801.23 768.081 800.132 768.493 799.378C769.11 798.28 769.384 798.142 769.796 798.897C770.619 800.132 773.636 798.691 774.253 796.839C774.459 796.015 775.008 795.398 775.351 795.398C775.694 795.398 775.968 794.917 775.968 794.368C775.968 793.819 776.448 793.339 776.997 793.339C777.545 793.339 778.025 792.996 778.025 792.653C778.025 792.241 778.437 791.966 778.917 791.966C780.014 791.966 781.523 790.731 788.038 784.487C790.713 781.879 793.114 779.272 793.319 778.654C793.594 778.036 794.074 777.556 794.485 777.556C794.828 777.556 795.171 777.076 795.171 776.527C795.171 775.978 795.72 775.497 796.474 775.497C797.914 775.497 799.012 774.331 799.355 772.409C799.492 771.723 800.315 770.9 801.138 770.694C803.607 770.145 807.516 766.028 807.516 764.038C807.516 763.008 807.722 762.459 807.996 762.665C808.476 763.214 810.945 761.224 810.945 760.195C810.945 759.852 811.768 758.548 812.797 757.313C816.843 752.441 817.803 751.068 818.9 748.186C819.518 746.608 820.272 745.304 820.615 745.304C820.889 745.304 821.85 744.137 822.673 742.696C823.564 741.324 824.661 739.883 825.141 739.608C825.622 739.334 826.033 738.511 826.033 737.756C826.033 737.069 826.239 736.383 826.513 736.246C827.336 735.903 831.451 730.482 831.657 729.453C831.863 728.423 832.205 728.011 834.606 724.992C835.566 723.757 836.32 722.316 836.32 721.698C836.32 721.081 836.732 720.395 837.281 720.189C838.446 719.777 839.887 716.414 839.612 715.042C839.475 714.493 840.092 714.013 840.984 713.875C841.807 713.738 842.493 713.327 842.493 712.983C842.493 711.885 845.648 707.494 846.128 707.974C846.471 708.386 847.911 706.19 847.774 705.504C847.705 705.298 848.528 704.063 849.557 702.69C850.585 701.318 851.408 699.945 851.408 699.534C851.408 699.191 852.026 698.298 852.78 697.612C853.535 696.926 853.946 696.103 853.74 695.828C853.535 695.485 853.672 695.211 854.015 695.211C854.426 695.211 854.838 694.524 855.112 693.632C855.318 692.74 858.13 688.554 861.353 684.3C864.576 680.045 867.182 676.134 867.182 675.585C867.182 675.036 867.662 674.624 868.211 674.624C868.76 674.624 869.24 674.075 869.24 673.32C869.24 672.634 869.857 671.262 870.612 670.301C871.366 669.34 871.983 668.174 871.983 667.625C871.983 667.144 872.532 665.772 873.218 664.674C873.972 663.507 874.384 661.792 874.246 660.625C874.109 659.527 874.452 657.675 875.001 656.508C875.549 655.342 876.167 652.803 876.441 650.95C876.715 649.028 877.127 646.558 877.47 645.46C877.813 644.294 878.224 641.892 878.498 640.039C878.704 638.186 879.184 636.128 879.527 635.441C879.87 634.824 880.35 632.628 880.556 630.569C880.762 628.579 881.653 624.462 882.545 621.443C884.397 615.267 885.7 610.463 886.111 608.405C886.248 607.65 886.523 606.277 886.728 605.317C887.003 604.356 887.277 602.846 887.483 601.954C887.688 600.994 887.963 600.033 888.1 599.758C888.306 599.552 888.58 597.837 888.786 595.984C889.06 594.131 889.677 591.73 890.226 590.632C890.775 589.534 891.186 588.093 891.186 587.475C891.186 586.789 892.009 583.221 892.969 579.515C893.998 575.741 894.89 572.104 895.027 571.349C895.918 566.752 898.182 557.213 899.965 550.282C903.668 536.146 903.805 533.813 901.336 516.109C900.513 510.002 900.445 509.453 899.416 497.581C899.005 492.503 898.182 484.475 897.633 479.74C897.084 475.005 896.536 469.79 896.33 468.074C896.124 466.359 895.781 463.408 895.507 461.555C895.233 459.634 895.095 457.644 895.233 456.957C895.438 455.105 893.312 443.919 892.078 440.969C891.461 439.459 890.363 436.92 889.677 435.342C888.923 433.764 888.511 432.117 888.786 431.705C889.06 431.293 888.923 429.989 888.511 428.754C888.1 427.588 887.688 425.803 887.483 424.843C887.346 423.882 886.865 421.137 886.385 418.667C885.905 416.196 885.562 413.177 885.562 411.942C885.631 410.775 885.425 409.746 885.151 409.746C884.877 409.746 884.534 408.717 884.465 407.482C884.259 404.805 884.054 403.502 883.093 399.796C882.682 398.286 882.202 394.992 882.065 392.454C881.859 389.983 881.516 387.581 881.31 387.17C881.036 386.758 880.693 384.974 880.487 383.19C880.282 381.337 879.87 379.141 879.527 378.18C879.184 377.22 878.773 375.23 878.567 373.72C877.675 366.652 873.835 354.163 872.669 354.163C872.326 354.163 871.983 352.859 871.777 351.212C871.434 348.124 869.24 341.811 868.074 340.301C867.662 339.821 866.977 338.174 866.497 336.664C865.331 333.233 862.244 326.508 861.49 325.959C861.147 325.754 860.941 325.342 860.941 325.067C861.01 324.862 860.941 324.518 860.941 324.313C860.873 324.107 860.804 323.764 860.736 323.421C860.667 323.146 859.913 321.499 859.09 319.715C858.267 317.931 857.581 316.147 857.581 315.804C857.581 315.392 857.307 315.049 856.895 315.049C856.552 315.049 856.003 314.225 855.798 313.127C855.523 312.098 855.112 311.137 854.838 310.931C854.632 310.726 853.054 307.775 851.34 304.412C849.694 300.981 848.117 298.099 847.774 298.031C847.499 297.893 847.294 297.207 847.294 296.452C847.294 295.766 847.019 295.149 846.745 295.149C846.402 295.149 845.716 294.325 845.236 293.227C844.687 292.198 843.933 290.963 843.59 290.414C843.179 289.933 842.836 289.179 842.767 288.698C842.699 288.286 841.738 286.365 840.572 284.444C839.475 282.522 838.309 280.258 838.035 279.503C837.829 278.679 837.281 277.993 836.938 277.993C836.595 277.993 836.32 277.376 836.32 276.689C836.32 275.935 835.909 274.905 835.429 274.425C834.606 273.464 833.371 271.268 830.628 265.985C829.874 264.475 828.365 261.936 827.268 260.358C826.239 258.779 825.347 257.064 825.347 256.583C825.347 256.034 824.799 255.005 824.181 254.25C822.81 252.809 819.518 246.359 819.723 245.535C819.792 245.261 819.586 245.055 819.175 245.055C818.832 245.055 818.489 244.712 818.489 244.3C818.489 243.888 817.529 242.173 816.432 240.457C815.266 238.81 814.374 236.82 814.374 236.066C814.374 235.379 814.1 234.762 813.688 234.762C813.345 234.762 811.768 232.566 810.122 229.89C808.476 227.145 806.624 224.057 806.007 223.028C805.321 221.93 805.047 221.038 805.321 221.038C805.596 221.038 805.253 220.694 804.567 220.283C803.95 219.94 803.401 218.979 803.401 218.293C803.401 217.607 802.989 216.714 802.441 216.44C801.961 216.165 800.795 214.519 799.972 212.872C799.149 211.156 797.983 209.372 797.503 208.823C796.954 208.343 796.543 207.656 796.543 207.382C796.543 207.039 795.651 205.735 794.485 204.5C793.388 203.196 792.428 201.755 792.428 201.275C792.428 200.863 792.153 200.451 791.879 200.451C791.536 200.451 789.822 198.118 787.901 195.305C786.05 192.491 784.335 190.158 783.992 190.158C783.718 190.158 783.512 189.815 783.512 189.472C783.512 188.58 776.791 179.659 775.899 179.316C775.556 179.179 775.282 178.767 775.282 178.355C775.282 177.669 771.922 173.277 769.453 170.67C768.63 169.915 766.984 167.856 765.681 166.141C764.378 164.425 762.457 162.161 761.429 161.063C760.4 159.896 759.508 158.592 759.508 158.112C759.508 157.632 759.028 157.22 758.48 157.22C757.862 157.22 757.176 156.671 756.971 156.053C756.491 154.887 755.805 153.926 752.444 150.015C751.416 148.779 750.593 147.407 750.593 146.995C750.593 146.584 750.112 146.24 749.564 146.24C749.015 146.24 748.535 145.897 748.535 145.486C748.535 145.005 747.849 144.113 747.026 143.427C746.272 142.672 745.792 142.123 745.998 142.123C746.272 142.123 745.517 141.162 744.42 140.065C743.254 138.898 742.363 137.731 742.363 137.457C742.363 137.182 741.265 135.741 739.962 134.369C738.659 132.997 737.562 131.693 737.562 131.487C737.562 131.075 728.715 119.41 727.343 118.037C725.766 116.459 723.091 113.302 721.034 110.557C720.005 109.254 718.496 107.332 717.604 106.371C716.713 105.411 714.724 103.146 713.215 101.225C711.706 99.3721 710.198 97.5193 709.786 97.1076C709.443 96.6959 708.483 95.5293 707.729 94.4314C706.974 93.402 705.74 91.961 705.054 91.2748C704.3 90.52 703.888 89.971 704.162 89.971C704.368 89.971 702.859 88.3241 700.733 86.3341C698.607 84.4127 696.618 82.8344 696.344 82.9716C696.001 83.0402 695.727 82.6285 695.727 82.0795C695.727 81.4619 695.247 80.8444 694.698 80.6385C694.149 80.364 693.669 79.815 693.669 79.2661C693.669 78.7171 693.258 78.3054 692.709 78.3054C692.229 78.3054 690.995 77.276 690.034 75.9722C687.634 72.8843 684.136 69.3846 683.313 69.3846C682.97 69.3846 682.696 68.9043 682.696 68.3553C682.696 67.8063 682.216 67.326 681.667 67.326C681.119 67.326 680.639 66.9829 680.639 66.5711C680.639 66.228 680.296 66.0908 679.953 66.2966C679.541 66.5025 679.267 66.4339 679.267 66.0222C679.267 65.6104 678.101 64.7184 676.729 64.0321C671.311 61.3559 668.294 59.5031 668.294 58.9542C668.294 58.6797 667.814 58.4052 667.197 58.4052C666.648 58.4052 664.453 57.4445 662.396 56.3466C660.407 55.18 658.692 54.4252 658.692 54.631C658.692 54.8369 657.389 54.1507 655.743 53.1214C652.863 51.2 651.903 50.8569 649.639 50.651C648.954 50.5824 648.405 50.3079 648.405 50.0334C648.405 49.7589 647.925 49.4844 647.376 49.4844C646.828 49.4844 646.348 49.0041 646.348 48.4551C646.348 47.563 645.456 47.2886 643.261 47.4258C643.056 47.4944 642.37 47.0141 641.753 46.3965C641.204 45.7789 640.244 45.4358 639.764 45.6417C639.215 45.8475 638.803 45.7103 638.803 45.3672C638.803 44.8868 635.374 43.7889 634.346 43.9947C634.14 43.9947 633.454 43.583 632.905 42.9654C632.288 42.4165 631.534 42.0733 631.191 42.2792C630.848 42.5537 630.574 42.4165 630.574 42.142C630.574 41.5244 621.864 38.7795 620.423 38.9168C619.943 38.9854 619.669 38.9168 619.875 38.7109C620.423 38.0933 615.486 35.6916 614.8 36.1033C614.388 36.3778 614.114 36.3092 614.114 35.9661C614.114 35.1426 608.696 33.5643 607.804 34.1133C607.324 34.3878 607.256 34.3191 607.53 33.8388C607.804 33.3584 607.324 33.1526 606.09 33.2898C604.924 33.3584 603.689 32.9467 603.004 32.0546C602.318 31.3684 601.769 30.9567 601.769 31.2998C601.769 31.5743 601.358 31.5057 600.877 31.1626C599.986 30.4077 596.282 29.3098 595.391 29.447C595.117 29.5157 594.911 29.3098 594.911 28.9667C594.911 28.555 594.362 28.2805 593.676 28.2805C593.059 28.2805 592.03 28.2119 591.482 28.006C590.933 27.8687 589.63 27.5256 588.533 27.1825C587.504 26.908 586.681 26.4277 586.681 26.1532C586.681 25.8787 584.761 25.2611 582.429 24.8494C580.028 24.4377 578.04 23.8201 577.902 23.477C577.765 23.0653 577.217 22.9966 576.668 23.2025C576.119 23.4084 575.708 23.2025 575.708 22.7908C575.708 22.379 575.502 22.1046 575.159 22.1732C574.61 22.2418 571.181 21.487 569.535 20.8694C568.987 20.5949 568.301 20.5263 567.958 20.5263C567.684 20.5949 567.478 20.389 567.478 20.1145C567.478 19.8401 566.929 19.5656 566.243 19.5656C564.117 19.4283 556.025 17.4383 554.79 16.6835C554.447 16.4776 553.419 16.2031 552.527 16.1345C551.635 15.9973 550.538 15.6542 550.127 15.3111C549.647 14.8993 548.069 14.5562 546.56 14.419C545.052 14.3504 543.474 14.0073 543.131 13.7328C542.445 13.321 540.799 12.8407 536.273 12.0172C533.255 11.3996 532.158 11.1938 532.158 11.0565C532.158 10.5076 520.293 8.24307 518.304 8.44893C517.139 8.58617 516.247 8.51755 516.453 8.24307C516.59 7.96858 515.835 7.62548 514.807 7.41961C513.778 7.21375 512.201 6.87064 511.24 6.59616C510.28 6.39029 508.566 5.97857 507.468 5.84132C506.303 5.63546 504.039 5.15511 502.325 4.812C500.61 4.4689 498.004 3.98855 496.495 3.85131C493.615 3.5082 489.294 2.95923 486.482 2.47888C485.591 2.34164 482.847 2.06715 480.378 1.79267C477.91 1.51819 475.372 1.2437 474.686 1.10646C469.885 0.283003 459.324 -0.0601032 440.944 0.00851887C411.316 0.0771414 396.502 0.900597 380.248 3.1651C378.534 3.37096 376.202 3.64545 375.105 3.78269C373.939 3.85131 370.921 4.94925 368.384 6.11581C365.778 7.351 363.377 8.3117 362.966 8.3117C362.006 8.3117 354.804 11.7428 352.541 13.3897C351.444 14.1445 350.689 14.419 350.964 14.0073C351.238 13.5955 349.729 14.1445 347.603 15.2424C345.477 16.3404 343.42 17.0266 343.145 16.8207C342.802 16.6149 342.528 16.7521 342.528 17.0952C342.528 17.5756 334.23 21.5556 332.927 21.6928C332.721 21.6928 330.938 22.5849 328.949 23.6142C326.891 24.6436 324.697 25.467 324.011 25.467C323.257 25.467 322.434 25.8787 322.159 26.3591C321.679 27.1139 312.763 30.2019 310.432 30.4077C310.02 30.4764 309.609 30.7509 309.609 31.0253C309.609 31.2998 308.854 31.7115 307.894 31.9174C307.003 32.1233 305.357 32.6722 304.328 33.1526C303.299 33.5643 302.202 33.9761 301.927 33.9761C301.722 34.0447 301.31 34.2505 301.036 34.525C300.762 34.7995 300.144 34.7995 299.596 34.5936C299.047 34.3878 298.635 34.525 298.635 34.9367C298.635 35.2799 297.332 36.0347 295.686 36.6523C290.406 38.5737 287.319 39.7402 283.89 41.3185C281.97 42.142 280.118 42.8968 279.775 43.0341C279.364 43.1027 277.306 43.9948 275.112 44.9555C272.986 45.9162 271.065 46.7396 270.86 46.7396C270.723 46.8082 269.351 47.2886 267.979 47.9062C266.539 48.5238 265.236 49.0727 265.03 49.1414C264.824 49.21 263.521 49.7589 262.013 50.3765C260.572 50.9941 259.201 51.5431 258.926 51.5431C258.652 51.5431 258.035 51.9548 257.555 52.3666C257.143 52.8469 256.526 53.2586 256.252 53.3272C255.36 53.3959 251.725 55.0428 248.433 56.6897C246.65 57.6504 244.593 58.4052 243.838 58.4052C243.084 58.4052 242.398 58.6111 242.261 58.8856C241.987 59.5718 234.717 63.2087 233.62 63.2087C233.208 63.2087 232.797 63.4832 232.797 63.8263C232.797 64.1694 231.768 64.7184 230.602 64.9929C227.996 65.5418 222.303 68.1494 221.961 68.8357C221.823 69.1788 221 69.3846 220.177 69.3846C219.354 69.3846 218.326 69.7277 217.846 70.2081C217.434 70.6198 216.611 71.1002 216.131 71.1688C215.582 71.2374 213.936 72.1295 212.359 73.0902C210.782 74.0509 209.136 74.8743 208.724 74.8743C207.695 74.8743 196.242 80.5699 195.625 81.3933C195.351 81.7365 195.076 81.8737 195.076 81.5306C195.076 81.2561 194.116 81.5306 192.95 82.1482C191.784 82.7658 190.07 83.3834 189.178 83.5206C188.287 83.6578 186.709 84.1382 185.681 84.6185C184.583 85.0303 183.623 85.442 183.417 85.5106C183.074 85.5792 176.079 89.0789 173.473 90.4514C168.535 93.059 167.643 93.4021 167.643 92.9217C167.643 92.6472 167.369 92.6472 167.095 93.059C166.82 93.4021 164.694 94.6373 162.294 95.7352C159.962 96.8331 158.042 98.0683 158.042 98.3428C158.042 98.6859 157.699 98.7545 157.287 98.48C156.876 98.2742 156.327 98.2742 156.053 98.6173C155.367 99.578 149.606 102.323 148.235 102.323C147.617 102.323 147.069 102.597 147.069 102.872C147.069 103.215 144.805 104.519 141.994 105.754C138.016 107.538 136.644 108.636 135.341 110.763C134.45 112.204 133.764 113.714 133.832 114.057C133.969 114.4 133.695 114.675 133.352 114.675C132.941 114.675 132.666 115.155 132.666 115.704C132.666 116.253 132.392 116.733 132.118 116.733C131.843 116.733 131.158 117.9 130.678 119.272C130.129 120.713 129.169 122.703 128.414 123.733C127.66 124.831 127.248 125.654 127.454 125.654C127.797 125.654 125.122 129.977 123.751 131.624C123.408 132.104 123.065 133.065 123.065 133.889C123.065 134.643 122.722 135.261 122.379 135.261C121.968 135.261 121.693 135.604 121.693 136.016C121.693 136.496 120.802 138.349 119.636 140.133C118.538 141.986 117.853 143.496 118.127 143.496C118.401 143.496 118.264 143.77 117.921 144.045C117.51 144.319 116.893 145.143 116.481 145.897C116.07 146.652 114.904 148.711 113.943 150.495C112.915 152.348 112.298 153.789 112.503 153.789C112.846 153.789 112.435 154.475 109.554 159.21C108.731 160.582 107.36 163.121 106.537 164.905C105.714 166.758 104.616 168.199 104.136 168.199C103.588 168.199 103.176 168.748 103.176 169.503C103.176 170.189 102.696 171.15 102.147 171.63C101.599 172.111 101.119 172.934 101.119 173.483C101.119 174.032 100.501 175.404 99.6784 176.502C98.924 177.6 98.5125 178.492 98.7182 178.492C98.9925 178.492 98.6496 178.973 98.101 179.59C97.4837 180.139 97.1408 180.963 97.3466 181.306C97.6209 181.649 97.4837 181.924 97.2094 181.924C96.8665 181.924 95.4263 184.462 93.9175 187.55C92.4772 190.707 90.9684 193.315 90.6941 193.452C90.4198 193.589 90.1454 194.275 90.1454 195.03C90.1454 195.716 89.8711 196.334 89.4596 196.334C88.7738 196.334 86.5106 200.794 86.3734 202.235C86.3734 202.647 85.9619 203.539 85.4133 204.157C84.9332 204.774 84.7274 205.255 85.0018 205.255C85.3447 205.255 85.0018 205.804 84.3845 206.559C82.7386 208.411 80.7497 212.46 80.9554 213.695C81.024 214.313 80.6811 214.93 80.1324 215.136C79.5838 215.342 79.1723 216.166 79.1723 216.92C79.1723 217.675 78.9665 218.293 78.6236 218.293C78.075 218.293 75.5374 223.577 75.4003 225.155C75.2631 226.184 75.0573 226.802 73.3428 231.331C70.6681 238.193 68.9535 243.957 69.365 244.575C69.5708 244.986 69.4336 245.055 69.0221 244.781C68.542 244.506 68.1991 244.506 68.1305 244.849C67.9934 246.702 67.5133 248.074 66.5531 249.515C65.5244 251.025 64.6328 254.319 64.4957 256.858C64.4957 257.476 64.3585 257.887 64.1528 257.681C63.7413 257.27 61.4095 262.279 61.3409 263.72C61.3409 264.406 61.0666 264.955 60.7237 264.955C60.3807 264.955 59.7635 266.465 59.2834 268.386C58.8034 270.239 58.1861 271.817 57.9118 271.817C57.5689 271.817 57.1574 273.053 56.883 274.562C56.6087 276.072 56.1972 277.444 55.8543 277.65C55.58 277.856 55.0999 279.16 54.8256 280.532C54.5513 281.973 54.0712 283.483 53.7283 283.895C53.3854 284.306 52.4938 286.777 51.7394 289.384C50.9164 291.992 49.8877 295.011 49.4076 296.178C48.8589 297.276 47.9674 299.952 47.2815 302.011C46.6643 304.069 45.8413 306.402 45.4984 307.157C44.744 308.941 43.0294 313.814 41.6578 318.137C41.1091 319.989 40.4233 321.842 40.2176 322.254C39.9432 322.597 39.6689 323.558 39.6003 324.244C39.4632 324.999 39.1202 325.891 38.7773 326.303C37.8172 327.469 37.1314 331.586 37.8858 331.381C38.2973 331.243 38.5716 331.381 38.6402 331.655C38.7088 331.998 38.503 332.204 38.1601 332.273C36.5141 332.479 35.4854 333.782 35.4168 335.772C35.3482 337.076 34.8681 339.203 34.2509 340.644C33.7023 342.017 33.2222 343.801 33.2222 344.556C33.2222 345.311 32.9478 345.928 32.6049 345.928C32.262 345.928 31.5762 347.712 31.0961 349.84C30.6161 352.036 29.9988 354.094 29.7245 354.506C28.6272 356.084 25.6781 366.789 26.021 367.956C26.2954 368.848 26.0896 369.26 25.4724 369.26C24.5122 369.26 23.6207 372.004 23.5521 374.955C23.5521 375.641 23.1406 376.328 22.7291 376.533C22.249 376.671 21.7689 377.769 21.7004 378.935C21.6318 380.102 20.7402 382.641 19.7115 384.562C18.6827 386.552 17.7912 388.748 17.654 389.503C17.2425 391.905 15.1165 397.737 14.2249 398.835C13.7448 399.384 13.3333 400.551 13.3333 401.443C13.3333 402.266 12.9218 403.913 12.4418 405.148C11.8931 406.384 11.5502 407.893 11.6874 408.58C11.7559 409.197 11.6188 409.746 11.2759 409.746C10.9329 409.746 10.7958 410.295 10.9329 410.913C11.0015 411.599 10.7958 412.56 10.3843 412.971C10.0414 413.452 9.9728 413.863 10.2471 413.863C10.5215 413.863 10.3843 414.344 9.90421 414.893C9.49272 415.442 9.28697 416.196 9.49272 416.54C9.76705 416.883 9.69847 417.363 9.35556 417.569C9.01264 417.775 8.73832 419.559 8.60115 421.549C8.53257 423.539 8.18966 426.078 7.84675 427.245C7.50384 428.342 7.09234 430.676 6.8866 432.391C6.68085 434.107 6.33794 436.234 6.13219 437.126C5.58353 440.077 4.28047 449.821 4.07472 452.497C4.00614 454.007 3.66323 455.379 3.25174 455.585C2.90883 455.86 2.56591 457.575 2.56591 459.497C2.56591 464.026 1.60576 476.515 1.19427 477.132C1.05711 477.475 1.26285 477.681 1.67435 477.681C2.08584 477.681 2.223 478.024 1.88009 478.505C0.919941 480.083 0.919941 481.936 1.81151 481.387C2.49733 480.975 2.49733 481.112 1.81151 481.936C0.714195 483.377 0.165537 485.641 0.302701 488.661C0.508448 491.405 0.439866 492.503 0.096955 497.101C0.0283728 498.885 -0.0402093 500.463 0.0283729 500.532ZM279.707 921.661C280.804 921.661 281.696 922.759 281.97 924.474C282.176 925.709 280.05 925.984 279.295 924.817C278.404 923.513 278.678 921.661 279.707 921.661ZM518.785 607.375C519.127 607.375 519.47 607.718 519.47 608.13C519.47 608.473 519.127 608.61 518.785 608.405C518.373 608.199 518.099 607.856 518.099 607.65C518.099 607.513 518.373 607.375 518.785 607.375ZM806.281 761.979C806.761 762.185 806.419 762.322 805.458 762.322C804.498 762.322 804.155 762.185 804.567 761.979C805.047 761.842 805.87 761.842 806.281 761.979Z" fill="black"/>
</svg>
